<?xml version="1.0" encoding="utf-8"?>
<!-- Generator: Adobe Illustrator 27.5.0, SVG Export Plug-In . SVG Version: 6.00 Build 0)  -->
<svg version="1.1" id="Illustration_00000095332502460957360560000007308928398714546356_"
	 xmlns="http://www.w3.org/2000/svg" xmlns:xlink="http://www.w3.org/1999/xlink" x="0px" y="0px" viewBox="0 0 500 500"
	 style="enable-background:new 0 0 500 500;" xml:space="preserve">
<g>
	<g>
		
			<linearGradient id="SVGID_1_" gradientUnits="userSpaceOnUse" x1="210.1754" y1="332.9206" x2="210.1754" y2="372.7868" gradientTransform="matrix(0.9975 -0.071 0.071 0.9975 0.178 -233.8451)">
			<stop  offset="0.243" style="stop-color:#63B38F"/>
			<stop  offset="1" style="stop-color:#008E4E"/>
		</linearGradient>
		<path style="fill:url(#SVGID_1_);" d="M222.826,109.062c1.559,5.239,3.207,11.246,8.098,13.685
			c4.498,2.243,10.235,0.302,13.622-3.411s4.845-8.788,5.63-13.751c0.999-6.313,1.08-12.771,0.241-19.107
			c-0.327-2.469-1.195-5.385-3.598-6.04c-0.791-0.215-1.63-0.134-2.444-0.034c-8.023,0.983-16.728,3.489-23.542,7.973
			C213.103,93.461,220.556,101.434,222.826,109.062z"/>
		
			<linearGradient id="SVGID_00000119081862854515519770000012189990062875483826_" gradientUnits="userSpaceOnUse" x1="249.3674" y1="281.8063" x2="221.5147" y2="327.4973" gradientTransform="matrix(0.9975 -0.071 0.071 0.9975 0.178 -233.8451)">
			<stop  offset="0.243" style="stop-color:#FFB1A6"/>
			<stop  offset="1" style="stop-color:#FF6261"/>
		</linearGradient>
		<path style="fill:url(#SVGID_00000119081862854515519770000012189990062875483826_);" d="M233.552,35.833
			c1.266-3.151,2.754-6.374,5.403-8.498c1.473-1.181,3.692-1.928,5.186-0.774c1.443,1.115,1.356,3.255,1.644,5.055
			c0.288,1.8,1.93,3.858,3.56,3.041c0.846-1.867,1.776-3.837,3.497-4.951c1.721-1.115,4.472-0.884,5.332,0.977
			c0.486,1.051,0.27,2.346,0.851,3.347c1.174,2.023,4.325,1.241,6.162-0.207c1.837-1.448,3.742-3.437,6.054-3.078
			c0.219,2.023,0.437,4.047,0.655,6.07c1.911,1.863,5.442-1.394,7.644,0.114c1.604,1.099,0.967,3.57,0.16,5.339
			c3.073,0.142,3.508,4.505,2.966,7.533c-0.495,2.761-0.99,5.522-1.484,8.283c2,1.105,3.024,3.713,2.309,5.884
			c-0.715,2.17-3.088,3.66-5.353,3.361c1.907,2.414,1.034,6.172-1.121,8.368c-2.155,2.196-5.223,3.19-8.188,4.012
			c-5.136,1.425-10.352,2.565-15.614,3.413c-8.532,1.375-24.508,2.216-28.118-8.033C221.539,64.983,229.81,45.147,233.552,35.833z"
			/>
		
			<linearGradient id="SVGID_00000075140223702776555390000005439780556075303097_" gradientUnits="userSpaceOnUse" x1="197.4137" y1="272.8755" x2="196.6963" y2="298.7012" gradientTransform="matrix(0.9975 -0.071 0.071 0.9975 0.178 -233.8451)">
			<stop  offset="0.243" style="stop-color:#FFB1A6"/>
			<stop  offset="1" style="stop-color:#FF6261"/>
		</linearGradient>
		<path style="fill:url(#SVGID_00000075140223702776555390000005439780556075303097_);" d="M192.99,41.453
			c-1.326-3.038-1.728-7.518,1.333-8.787c2.342-0.972,4.842,0.828,6.74,2.509c0.23-3.388,1.62-7.861,5.007-7.604
			c1.926,0.146,3.276,1.904,4.329,3.523c1.528-0.878,2.079-2.763,3.002-4.266s3.022-2.741,4.356-1.589
			c0.488,0.422,0.75,1.09,1.311,1.411c2.244,1.284,3.317-4.162,5.896-3.984c0.672,1.162,1.343,2.325,2.015,3.487
			c1.672-2.627,3.992-5.452,7.106-5.394c2.253,0.042,4.201,1.663,5.442,3.543c4.514,6.839,1.573,15.93-1.484,23.534
			c-3.26,8.111-6.275,16.376-9.796,24.376c-3.098,7.04-5.529,11.333-11.591,4.393c-4.552-5.211-7.752-12.125-12.05-17.666
			C200.31,53.403,195.818,47.931,192.99,41.453z"/>
		
			<linearGradient id="SVGID_00000067208226861279600940000012362781287154086077_" gradientUnits="userSpaceOnUse" x1="250.566" y1="330.5076" x2="213.2979" y2="329.6203" gradientTransform="matrix(0.9975 -0.071 0.071 0.9975 0.178 -233.8451)">
			<stop  offset="0.243" style="stop-color:#FFB1A6"/>
			<stop  offset="1" style="stop-color:#FF6261"/>
		</linearGradient>
		<path style="fill:url(#SVGID_00000067208226861279600940000012362781287154086077_);" d="M257.927,63.221
			c2.822-0.779,6.031-1.28,8.525,0.253c2.494,1.534,3.129,5.904,0.491,7.175c2.258,0.286,4.704,1.185,5.677,3.243
			c0.973,2.057-0.799,5.146-2.991,4.533c1.574,1.215,1.991,3.638,1.034,5.381c-0.956,1.743-3.105,2.693-5.068,2.374
			c2.089,1.252,2.122,4.558,0.505,6.379c-1.617,1.821-4.276,2.358-6.704,2.169c-2.428-0.189-4.765-0.986-7.167-1.388
			c-7.085-1.185-30.195,6.082-23.871-9.407C232.507,73.777,248.128,65.927,257.927,63.221z"/>
		
			<linearGradient id="SVGID_00000112610336092261437020000008163840576270503100_" gradientUnits="userSpaceOnUse" x1="230.5524" y1="287.1313" x2="213.1004" y2="319.4498" gradientTransform="matrix(0.9975 -0.071 0.071 0.9975 0.178 -233.8451)">
			<stop  offset="0.243" style="stop-color:#FFB1A6"/>
			<stop  offset="1" style="stop-color:#FF6261"/>
		</linearGradient>
		<path style="fill:url(#SVGID_00000112610336092261437020000008163840576270503100_);" d="M215.749,49.105
			c0.44-0.431,0.923-0.872,1.648-1.167c2.815-1.145,5.991,0.65,7.479,2.233c2.552-1.972,5.701-3.722,9.255-5.143
			c1.332,1.096,2.664,2.192,3.996,3.288c3.436-1.381,7.87-2.83,11.335-1.817c0.773,0.226,1.493,0.575,2.402,0.55
			c1.37-0.037,2.325-0.877,3.636-1.163c4.263-0.927,5.245,4.142,9.695,3.79c1.691-0.134,2.958-1.059,4.612-1.343
			c2.354-0.403,4.614,0.71,4.996,2.002c0.382,1.292-0.585,2.649-1.649,3.893c-6.148,7.191-16.369,13.459-28.727,17.614
			c1.846-0.351,3.337,0.922,2.766,1.952c-0.571,1.03-2.305,1.753-3.921,2.389c-5.023,1.977-10.046,3.954-15.068,5.931
			c1.146,0.568,0.846,1.707-0.231,2.422s-2.689,1.097-4.245,1.408c-5.739,1.146-18.429,3.359-22.659,0.303
			c-3.349-2.419,1.183-7.733,2.279-10.422C206.982,66.908,207.265,57.432,215.749,49.105z"/>
		
			<linearGradient id="SVGID_00000144297579687866982640000008695273026529893769_" gradientUnits="userSpaceOnUse" x1="131.727" y1="318.7918" x2="175.6787" y2="336.2432" gradientTransform="matrix(0.9975 -0.071 0.071 0.9975 0.178 -233.8451)">
			<stop  offset="0.243" style="stop-color:#FFB1A6"/>
			<stop  offset="1" style="stop-color:#FF6261"/>
		</linearGradient>
		<path style="fill:url(#SVGID_00000144297579687866982640000008695273026529893769_);" d="M189.535,90.363
			c-9.5,1.135-18.64,4.212-27.866,6.749c-2.986,0.821-7.177,0.994-8.142-1.95c1.689-2,4.29-3.198,6.908-3.182
			c-1.555-1.035-2.998-2.598-2.988-4.466c0.01-1.868,2.273-3.587,3.801-2.512c-1.397-2.051-2.857-4.346-2.561-6.81
			c0.296-2.464,3.426-4.543,5.322-2.943c-0.895-1.511-1.646-3.297-1.164-4.985c0.482-1.689,2.758-2.855,4.08-1.7
			c-0.568-3.549,2.615-6.829,6.112-7.656c3.497-0.827,7.145,0.153,10.581,1.208c11.282,3.461,24.22,8.637,30.239,19.56
			C223.317,98.844,198.928,89.241,189.535,90.363z"/>
		
			<linearGradient id="SVGID_00000023257243817706965720000017312186526344195467_" gradientUnits="userSpaceOnUse" x1="170.4489" y1="289.0542" x2="170.4489" y2="332.2852" gradientTransform="matrix(0.9975 -0.071 0.071 0.9975 0.178 -233.8451)">
			<stop  offset="0.243" style="stop-color:#FFB1A6"/>
			<stop  offset="1" style="stop-color:#FF6261"/>
		</linearGradient>
		<path style="fill:url(#SVGID_00000023257243817706965720000017312186526344195467_);" d="M167.404,58.736
			c-1.306-2.662-1.786-6.652,0.905-7.897c3.107-1.438,7.657,2.41,9.769-0.285c1.588-2.026-0.678-5.315,0.719-7.478
			c1.261-1.952,4.352-1.288,6.172,0.158c1.82,1.446,3.36,3.508,5.644,3.94c0.44,0.083,0.922,0.093,1.305-0.139
			c0.43-0.259,0.643-0.76,0.795-1.238c0.399-1.254,0.568-2.599,1.216-3.745c0.648-1.146,1.996-2.06,3.246-1.651
			c1.65,0.54,2.331,3.04,4.067,3.017c1.538-0.02,2.15-1.939,3.131-3.123c2.022-2.44,6.255-1.589,8.282,0.847
			c2.027,2.436,2.453,5.785,2.798,8.935c0.998,9.122,1.996,18.244,2.994,27.366c0.228,2.079,0.329,4.508-1.237,5.895
			c-4.587,4.06-21.292-1.472-26.254-3.893C181.587,74.875,172.115,68.336,167.404,58.736z"/>
		
			<linearGradient id="SVGID_00000101807228502511674380000015949093737582953351_" gradientUnits="userSpaceOnUse" x1="192.4391" y1="320.5254" x2="192.4391" y2="345.9806" gradientTransform="matrix(0.9975 -0.071 0.071 0.9975 0.178 -233.8451)">
			<stop  offset="0.243" style="stop-color:#FFB1A6"/>
			<stop  offset="1" style="stop-color:#FF6261"/>
		</linearGradient>
		<path style="fill:url(#SVGID_00000101807228502511674380000015949093737582953351_);" d="M232.156,74.842
			c-0.704,0.594-1.359,1.363-2.524,1.476c-0.646,0.063-1.262-0.112-1.769-0.332c-1.758-0.763-2.634-2.054-4.042-3.045
			c-1.409-0.99-3.983-1.662-5.858-0.83c-0.881,0.391-1.418,1.044-2.376,1.354c-2.046,0.663-4.11-0.629-6.338-0.733
			c-2.333-0.109-4.735,1.117-6.95,0.727c-1.986-0.35-3.634-1.919-5.496-1.229c-0.842,0.312-1.161,0.971-1.929,1.349
			c-1.141,0.563-2.743,0.314-4.164,0.427c-3.122,0.247-5.24,2.338-5.488,4.225c-0.542,4.119,4.922,7.256,9.958,9.799
			c4.685,2.365,9.372,4.732,14.303,6.914c4.079,1.805,9.264,3.545,14.241,2.31c2.918-0.724,5.024-2.322,6.973-3.845
			c2.12-1.657,4.239-3.314,6.359-4.971c2.379-1.86,4.787-3.749,6.319-5.886c1.566-2.185,3.354-6.258,0.669-8.174
			C241.362,72.465,234.752,72.654,232.156,74.842z"/>
		
			<linearGradient id="SVGID_00000120517718880708268900000013406106489827351722_" gradientUnits="userSpaceOnUse" x1="169.347" y1="351.3916" x2="175.1796" y2="338.1358" gradientTransform="matrix(0.9975 -0.071 0.071 0.9975 0.178 -233.8451)">
			<stop  offset="0.243" style="stop-color:#FFB1A6"/>
			<stop  offset="1" style="stop-color:#FF6261"/>
		</linearGradient>
		<path style="fill:url(#SVGID_00000120517718880708268900000013406106489827351722_);" d="M186.919,87.266
			c-5.054-0.021-10.291,0.182-14.725,3.225c-0.784,0.538-1.565,1.203-1.99,2.248c-1.125,2.77,1.077,6.473,3.436,6.913
			c2.359,0.44,4.554-1.226,6.553-2.835c-0.057,2.375-0.086,4.909,0.829,6.993s3.154,3.312,4.454,1.801
			c0.808-0.939,1.178-2.757,2.252-2.914c1.052-0.154,1.784,1.41,2.591,2.404c1.889,2.325,5.318,1.225,6.088-1.953
			c1.027,2.749,2.13,5.619,3.986,7.401c1.856,1.782,4.702,1.996,6.017-0.365c0.553-0.993,1.015-2.498,1.947-2.353
			c0.498,0.078,0.883,0.64,1.323,0.991c1.07,0.854,2.584,0.24,3.073-1.248c2.385,4.197,7.841,2.41,9.184-2.366
			C227.943,83.856,193.537,87.294,186.919,87.266z"/>
		
			<linearGradient id="SVGID_00000050627798321993971260000015718330247633710212_" gradientUnits="userSpaceOnUse" x1="220.6558" y1="362.8172" x2="196.7419" y2="328.5621" gradientTransform="matrix(0.9975 -0.071 0.071 0.9975 0.178 -233.8451)">
			<stop  offset="0.243" style="stop-color:#FFB1A6"/>
			<stop  offset="1" style="stop-color:#FF6261"/>
		</linearGradient>
		<path style="fill:url(#SVGID_00000050627798321993971260000015718330247633710212_);" d="M225.372,88.379
			c-7.204,2.127-13.169,8.046-15.351,15.233c-0.796,2.621-1.06,5.642,0.421,7.945c1.481,2.304,5.229,3.164,6.978,1.057
			c1.098-1.323,1.274-3.497,2.855-4.169c2.512-1.068,4.381,2.88,7.064,3.385c2.269,0.428,4.148-1.721,5.295-3.725
			c1.147-2.004,2.424-4.355,4.697-4.762c1.713-0.306,3.364,0.637,4.975,1.294c1.611,0.657,3.708,0.947,4.883-0.336
			c1.06-1.157,0.921-3.172,2.193-4.091c2.77-2.003,28.412-0.26,12.594-8.958C253.046,86.342,234.929,85.558,225.372,88.379z"/>
		<g>
			
				<linearGradient id="SVGID_00000160150442401435607790000013552096618954760354_" gradientUnits="userSpaceOnUse" x1="183.3153" y1="425.0313" x2="183.3153" y2="555.2359" gradientTransform="matrix(0.9975 -0.071 0.071 0.9975 0.178 -233.8451)">
				<stop  offset="0.243" style="stop-color:#63B38F"/>
				<stop  offset="1" style="stop-color:#008E4E"/>
			</linearGradient>
			<path style="fill:url(#SVGID_00000160150442401435607790000013552096618954760354_);" d="M178.454,180.074
				c4.723,18.371,12.126,36.057,22.082,52.213c4.734,7.681,10.05,15.007,15.941,21.843c2.91,3.377,5.95,6.643,9.13,9.768
				c3.593,3.53,7.467,6.814,10.689,10.702c3.661,4.419,6.479,9.454,9.26,14.45c3.006,5.399,6.006,10.801,9.009,16.202
				c0.942,1.693,3.425-0.016,2.487-1.702c-2.688-4.833-5.375-9.667-8.063-14.5c-2.51-4.513-4.98-9.075-7.996-13.277
				c-5.479-7.634-13.101-13.455-19.402-20.377c-12.318-13.531-22.27-29.246-29.721-45.936c-4.38-9.811-7.9-19.988-10.575-30.393
				C180.814,177.193,177.974,178.204,178.454,180.074L178.454,180.074z"/>
		</g>
		<g>
			
				<linearGradient id="SVGID_00000047025784290157166770000005806173291928085664_" gradientUnits="userSpaceOnUse" x1="121.4985" y1="394.4924" x2="121.4985" y2="442.6265" gradientTransform="matrix(0.9975 -0.071 0.071 0.9975 0.178 -233.8451)">
				<stop  offset="0.243" style="stop-color:#FFB1A6"/>
				<stop  offset="1" style="stop-color:#FF6261"/>
			</linearGradient>
			<path style="fill:url(#SVGID_00000047025784290157166770000005806173291928085664_);" d="M164.219,164.103
				c-5.773-5.565-11.786-11.283-19.333-13.992c-2.994-1.075-6.52-1.583-9.208,0.117c-2.688,1.7-3.408,6.33-0.651,7.915
				c-2.635-0.488-5.509,1.027-6.595,3.477c-1.086,2.45-0.279,5.597,1.853,7.222c-2.707-0.236-4.978,3.129-3.748,5.551
				c0.271,0.533,0.679,1.049,0.646,1.646c-0.055,0.988-1.194,1.458-1.958,2.086c-1.883,1.549-1.24,5.129,1.065,5.924
				c-1.67-0.276-3.123,1.517-3.072,3.209c0.051,1.692,1.151,3.168,2.354,4.358c5.284,5.224,13.06,7.029,20.474,7.513
				c8.597,0.562,29.226,1.209,33.646-8.414C184.362,180.551,170.251,169.917,164.219,164.103z"/>
			
				<linearGradient id="SVGID_00000173879797483433251470000017080082647012462491_" gradientUnits="userSpaceOnUse" x1="141.9093" y1="380.3444" x2="141.3391" y2="400.8727" gradientTransform="matrix(0.9975 -0.071 0.071 0.9975 0.178 -233.8451)">
				<stop  offset="0.243" style="stop-color:#FFB1A6"/>
				<stop  offset="1" style="stop-color:#FF6261"/>
			</linearGradient>
			<path style="fill:url(#SVGID_00000173879797483433251470000017080082647012462491_);" d="M156.929,165.973
				c-6.504-4.607-12.896-10.476-14.49-18.285c2.435-1.91,6.106-2.056,8.684-0.343c-0.428-2.216-0.569-5.079,1.43-6.129
				c1.782-0.935,4.044,0.343,5.947-0.312c2.655-0.913,3.454-5.12,6.258-5.275c1.984-0.11,3.874,2.048,5.676,1.212
				c1.512-0.701,1.803-3.139,3.439-3.458c1.331-0.259,2.47,1.144,3.826,1.17c1.393,0.026,2.389-1.363,3.716-1.787
				c1.697-0.542,3.703,0.955,3.667,2.736c0.758-2.488,4.354-3.074,6.512-1.624c2.158,1.45,3.12,4.12,3.669,6.662
				c2.539,11.755-0.94,25.672-7.806,35.484c-4.297,6.14-7.924,2.672-14.185-0.376C167.574,172.874,162.101,169.636,156.929,165.973z
				"/>
			
				<linearGradient id="SVGID_00000113350146679167116920000017181865031040915638_" gradientUnits="userSpaceOnUse" x1="187.0025" y1="393.0587" x2="158.012" y2="440.6162" gradientTransform="matrix(0.9975 -0.071 0.071 0.9975 0.178 -233.8451)">
				<stop  offset="0.243" style="stop-color:#FFB1A6"/>
				<stop  offset="1" style="stop-color:#FF6261"/>
			</linearGradient>
			<path style="fill:url(#SVGID_00000113350146679167116920000017181865031040915638_);" d="M177.16,162.264
				c4.998-11.078,15.764-20.053,27.911-20.438c2.246-0.071,4.658,0.205,6.375,1.653c1.718,1.448,2.291,4.395,0.647,5.926
				c2.457-1.101,5.573-1.27,7.652,0.441c2.079,1.711,2.155,5.614-0.271,6.782c1.634-0.597,3.656,0.218,4.417,1.783
				c0.762,1.564,0.157,3.659-1.321,4.577c1.149-1.29,3.506,0.079,3.684,1.797c0.178,1.718-0.951,3.268-2.02,4.625
				c2.807-0.583,4.638,3.521,3.24,6.024c-1.398,2.503-4.395,3.552-7.134,4.4c-4.467,1.382-8.935,2.764-13.402,4.146
				c-4.236,1.311-8.525,2.645-12.296,4.977c-6.361,3.935-16.549,19.459-20.507,6.436C171.05,185.244,172.883,171.744,177.16,162.264
				z"/>
			
				<linearGradient id="SVGID_00000062885393769868014870000000554066741921893256_" gradientUnits="userSpaceOnUse" x1="99.0327" y1="462.675" x2="125.8598" y2="440.2279" gradientTransform="matrix(0.9975 -0.071 0.071 0.9975 0.178 -233.8451)">
				<stop  offset="0.243" style="stop-color:#FFB1A6"/>
				<stop  offset="1" style="stop-color:#FF6261"/>
			</linearGradient>
			<path style="fill:url(#SVGID_00000062885393769868014870000000554066741921893256_);" d="M131.843,186.252
				c-1.652,0.522-3.477,1.333-4,2.985c-0.45,1.421,0.254,2.947,1.12,4.161c1.378,1.93,3.219,3.527,5.324,4.619
				c-1.914-1.306-4.932,0.518-4.872,2.834c0.06,2.316,2.828,4.015,5.009,3.235c-2.293,0.939-3.422,4-2.287,6.202
				c1.135,2.202,4.283,3.06,6.378,1.737c-1.922,0.976-1.987,4.067-0.342,5.461c1.645,1.394,4.273,1.136,5.973-0.19
				c0.044,2.762,0.089,5.525,0.133,8.287c3.733-0.39,7.319-2.07,10.007-4.688c-0.389,2.32,2.529,3.817,4.88,3.756
				c13.195-0.344,24.004-21.371,14.983-31.664C164.856,182.383,143.947,182.426,131.843,186.252z"/>
			
				<linearGradient id="SVGID_00000181805393113147781650000016916657151758568376_" gradientUnits="userSpaceOnUse" x1="121.0153" y1="396.6463" x2="148.3898" y2="439.8979" gradientTransform="matrix(0.9975 -0.071 0.071 0.9975 0.178 -233.8451)">
				<stop  offset="0.243" style="stop-color:#FFB1A6"/>
				<stop  offset="1" style="stop-color:#FF6261"/>
			</linearGradient>
			<path style="fill:url(#SVGID_00000181805393113147781650000016916657151758568376_);" d="M176.238,153.913
				c-1.488-2.751-3.302-5.514-6.072-6.968c-0.889-0.467-1.917-0.787-2.895-0.558c-2.779,0.652-2.82,4.563-2.211,7.352
				c-2.456,0.551-4.766-1.599-7.283-1.594c-3.179,0.006-5.373,4.319-3.506,6.892c-1.638-0.238-3.275-0.475-4.913-0.713
				c-0.56-0.081-1.184-0.148-1.645,0.18c-0.464,0.33-0.604,0.947-0.684,1.51c-0.327,2.295-0.223,4.65,0.304,6.907
				c-1.711-0.468-3.49-0.941-5.239-0.645c-1.75,0.296-3.464,1.591-3.64,3.357c-0.153,1.535,0.851,2.986,0.808,4.528
				c-0.021,0.749-0.288,1.516-0.064,2.231c0.214,0.68,0.822,1.147,1.396,1.569c5.989,4.399,12.069,8.849,18.998,11.533
				c6.833,2.646,23.137,5.38,25.34-4.634C186.833,176.216,180.148,161.141,176.238,153.913z"/>
			
				<linearGradient id="SVGID_00000125593909488646184330000006271028860495019412_" gradientUnits="userSpaceOnUse" x1="171.418" y1="398.8887" x2="161.0262" y2="418.1328" gradientTransform="matrix(0.9975 -0.071 0.071 0.9975 0.178 -233.8451)">
				<stop  offset="0.243" style="stop-color:#FFB1A6"/>
				<stop  offset="1" style="stop-color:#FF6261"/>
			</linearGradient>
			<path style="fill:url(#SVGID_00000125593909488646184330000006271028860495019412_);" d="M182.424,149.958
				c0.609-0.885,1.29-1.775,2.251-2.254c0.961-0.479,2.274-0.416,2.95,0.418c0.437,0.539,0.529,1.272,0.596,1.962
				c0.257,2.624,0.414,5.258,0.47,7.894c1.287-1.565,3.022-2.757,4.945-3.398c0.37-0.123,0.8-0.22,1.13-0.013
				c0.327,0.206,0.427,0.629,0.499,1.01c0.363,1.924,0.725,3.848,1.088,5.772c1.755-0.669,3.509-1.337,5.264-2.006
				c1.124,2.316,0.85,5.247-0.684,7.314c1.194-0.559,2.565-1.02,3.807-0.579c1.242,0.441,2.022,2.19,1.103,3.135
				c8.003-2.121-2.966,14.732-5.049,16.331c-4.827,3.704-11.235,5.335-16.882,2.449
				C170.387,181.081,175.689,159.749,182.424,149.958z"/>
			
				<linearGradient id="SVGID_00000140706308791107888280000000471442271001644989_" gradientUnits="userSpaceOnUse" x1="154.632" y1="419.4072" x2="154.632" y2="442.0016" gradientTransform="matrix(0.9975 -0.071 0.071 0.9975 0.178 -233.8451)">
				<stop  offset="0.243" style="stop-color:#FFB1A6"/>
				<stop  offset="1" style="stop-color:#FF6261"/>
			</linearGradient>
			<path style="fill:url(#SVGID_00000140706308791107888280000000471442271001644989_);" d="M178.079,177.587
				c1.57-0.147,3.258,1.804,4.438,0.758c-0.196-1.04-0.391-2.126-0.095-3.142c0.297-1.016,1.251-1.924,2.301-1.791
				c1.211,0.154,1.853,1.477,2.28,2.62c1.185-0.177,1.765-1.49,2.33-2.547c0.565-1.057,1.792-2.131,2.821-1.516
				c0.799,0.478,0.896,1.716,1.721,2.147c1.722,0.901,3.671-2.72,5.193-1.512c0.402,0.319,0.528,0.865,0.63,1.368
				c2.209,10.95-3.941,23.462-16.938,22.419c-4.766-0.382-8.509-3.313-11.088-7.191c-4.734-7.119-2.015-8.311,4.812-6.726
				C175.964,181.027,175.878,177.793,178.079,177.587z"/>
			
				<linearGradient id="SVGID_00000033337911917805060970000005747328347711233156_" gradientUnits="userSpaceOnUse" x1="110.2088" y1="436.3385" x2="128.8241" y2="429.2209" gradientTransform="matrix(0.9975 -0.071 0.071 0.9975 0.178 -233.8451)">
				<stop  offset="0.243" style="stop-color:#FFB1A6"/>
				<stop  offset="1" style="stop-color:#FF6261"/>
			</linearGradient>
			<path style="fill:url(#SVGID_00000033337911917805060970000005747328347711233156_);" d="M163.22,176.88
				c-8.247-4.959-18.555-6.838-27.735-3.953c-0.915,0.288-1.955,0.775-2.12,1.72c-0.341,1.946,3.164,2.567,3.37,4.532
				c-2.031-0.882-4.478,1.183-4.437,3.397c0.04,2.213,1.958,4.062,4.094,4.643c2.136,0.581,4.418,0.141,6.526-0.533
				c-1.708,1.443-0.385,4.534,1.742,5.224c2.127,0.69,4.412-0.183,6.476-1.043c-0.589,2.047,0.599,4.445,2.585,5.217
				c1.985,0.771,4.481-0.196,5.428-2.104c-1.841,3.708,16.912,11.176,20.354,3.784C182.704,190.886,168.1,179.814,163.22,176.88z"/>
			
				<linearGradient id="SVGID_00000022547149569217056300000015866227043294770098_" gradientUnits="userSpaceOnUse" x1="134.7527" y1="433.9177" x2="163.2233" y2="426.2525" gradientTransform="matrix(0.9975 -0.071 0.071 0.9975 0.178 -233.8451)">
				<stop  offset="0.243" style="stop-color:#FFB1A6"/>
				<stop  offset="1" style="stop-color:#FF6261"/>
			</linearGradient>
			<path style="fill:url(#SVGID_00000022547149569217056300000015866227043294770098_);" d="M159.316,172.944
				c-0.977-0.375-2.013-0.759-3.009-0.644c-0.997,0.114-1.891,0.933-1.627,1.861c0.123,0.431,0.462,0.799,0.806,1.133
				c1.701,1.652,3.813,2.95,6.085,3.74c-2.188-0.596-4.568,0.539-5.13,2.446c1.637,1.406,3.639,2.446,5.74,2.982
				c-1.207,0.592-1.716,2.091-1.136,3.348c0.58,1.257,2.179,2.119,3.571,1.926c0.655-0.091,1.287-0.386,1.958-0.232
				c1.043,0.238,1.537,1.352,2.054,2.24c0.517,0.887,1.736,1.792,2.524,1.234c-1.061,1.482-2.1,3.504-0.817,5.076
				c0.434,0.532,1.066,0.896,1.679,1.244c1.979,1.125,3.958,2.25,5.937,3.375c1.23,0.699,2.593,1.429,3.941,1.279
				c1.437-0.16,2.423-1.299,2.9-2.523C190.404,187.036,171.16,177.491,159.316,172.944z"/>
			
				<linearGradient id="SVGID_00000119116339743976951400000006709156529965846148_" gradientUnits="userSpaceOnUse" x1="120.508" y1="456.5627" x2="144.0506" y2="444.5177" gradientTransform="matrix(0.9975 -0.071 0.071 0.9975 0.178 -233.8451)">
				<stop  offset="0.243" style="stop-color:#FFB1A6"/>
				<stop  offset="1" style="stop-color:#FF6261"/>
			</linearGradient>
			<path style="fill:url(#SVGID_00000119116339743976951400000006709156529965846148_);" d="M163.299,193.696
				c-7.525,1.569-14.281,5.821-19.926,11.039c-1.121,1.035-2.293,2.35-2.1,3.863c0.317,2.479,3.701,2.991,6.164,2.569
				c3.241-0.554,6.399-1.59,9.339-3.064c-0.189,1.167-0.377,2.375-0.077,3.52c0.299,1.144,1.222,2.214,2.402,2.293
				c1.215,0.081,2.23-0.846,3.144-1.65c2.803-2.466,6.131-4.331,9.697-5.436c-0.034,1.121,0.42,2.248,1.221,3.032
				c0.833-2.042,3.794-1.648,5.905-1.01c2.111,0.637,5.231,0.57,5.577-1.608c0.828,0.551,1.723,0.656,2.58,0.245
				C187.91,194.623,174.16,191.432,163.299,193.696z"/>
			
				<linearGradient id="SVGID_00000141423640306809715050000002489287812685732781_" gradientUnits="userSpaceOnUse" x1="171.7817" y1="440.8214" x2="162.8272" y2="427.9947" gradientTransform="matrix(0.9975 -0.071 0.071 0.9975 0.178 -233.8451)">
				<stop  offset="0.243" style="stop-color:#FFB1A6"/>
				<stop  offset="1" style="stop-color:#FF6261"/>
			</linearGradient>
			<path style="fill:url(#SVGID_00000141423640306809715050000002489287812685732781_);" d="M218.479,178.402
				c-1.39,2.857-4.474,4.807-7.652,4.837c-0.507,0.005-1.067-0.018-1.455,0.308c-0.603,0.506-0.399,1.45-0.335,2.234
				c0.269,3.279-3.76,6.041-6.722,4.607c-0.287,1.035-0.043,2.202,0.633,3.036c-1.596,1.072-3.55,1.599-5.468,1.477
				c1.36,2.992-1.642,5.217-4.368,4.739c-0.101,4.536-5.007,6.025-7.895,2.84c-0.615,0.644-1.646,1.048-2.112,1.482
				c-1.099-4.745,3.478-11.903,6.539-15.351c3.16-3.56,7.258-5.472,11.626-7.244C202.95,180.686,218.81,177.723,218.479,178.402z"/>
		</g>
		<g>
			
				<linearGradient id="SVGID_00000077296107524318582300000002139507128133137334_" gradientUnits="userSpaceOnUse" x1="179.9511" y1="358.5428" x2="179.9511" y2="661.3809" gradientTransform="matrix(0.9975 -0.071 0.071 0.9975 0.178 -233.8451)">
				<stop  offset="0.243" style="stop-color:#63B38F"/>
				<stop  offset="1" style="stop-color:#008E4E"/>
			</linearGradient>
			<path style="fill:url(#SVGID_00000077296107524318582300000002139507128133137334_);" d="M245.309,177.103
				c-1.97-16.75-3.941-33.501-5.91-50.251c3.456-1.025,6.599-3.223,8.98-5.974c3.313-3.827,5.334-8.6,6.877-13.421
				c-4.294,3.299-8.589,6.599-12.885,9.9c-5.019,3.857-4.154,2.704-10.111,1.788c-7.258-1.115-14.515-2.231-21.773-3.346
				c4.352,3.063,8.918,5.824,13.653,8.254c3.475,1.784,7.181,3.422,11.087,3.434c0.054,0,0.107-0.01,0.162-0.011
				c3.563,30.292,7.126,60.584,10.689,90.876c0.762,6.479,1.533,12.956,2.3,19.434c-0.723-0.967-1.449-1.844-2.029-2.551
				c-9.047-11.027-20.161-21.542-33.838-26.366c-9.313-3.285-19.348-3.75-29.035-5.671c-8.4-1.666-17.015-4.769-22.921-10.788
				c4.299,5.879,6.51,13.383,11.609,18.661c7.432,7.693,19.075,8.935,29.656,10.501c10.58,1.566,22.383,4.868,27.301,14.366
				c1.281,2.474,2.006,5.249,3.632,7.512c2.7,3.757,12.434,8.435,16.881,5.08c0.642,5.475,1.288,10.95,1.907,16.428
				c1.661,14.691,3.09,29.432,3.372,44.224c0.316,16.585-8.908,84.192-12.88,100.332c-0.626,2.544,3.36,3.33,3.983,0.799
				c7.117-28.924,13.414-109.997,10.271-139.34C252.932,239.653,248.989,208.387,245.309,177.103z"/>
			
				<linearGradient id="SVGID_00000021112072429998705030000009031299419428029596_" gradientUnits="userSpaceOnUse" x1="128.5564" y1="433.4156" x2="128.5564" y2="436.5567" gradientTransform="matrix(0.9975 -0.071 0.071 0.9975 0.178 -233.8451)">
				<stop  offset="0.243" style="stop-color:#63B38F"/>
				<stop  offset="1" style="stop-color:#008E4E"/>
			</linearGradient>
			<path style="fill:url(#SVGID_00000021112072429998705030000009031299419428029596_);" d="M160.555,192.411
				c-0.766-1.047-1.589-2.049-2.516-2.97C158.806,190.505,159.651,191.49,160.555,192.411z"/>
			
				<linearGradient id="SVGID_00000034795840632224553250000004383769985069347973_" gradientUnits="userSpaceOnUse" x1="239.8979" y1="346.6766" x2="239.8979" y2="440.0266" gradientTransform="matrix(0.9975 -0.071 0.071 0.9975 0.178 -233.8451)">
				<stop  offset="0.243" style="stop-color:#63B38F"/>
				<stop  offset="1" style="stop-color:#008E4E"/>
			</linearGradient>
			<path style="fill:url(#SVGID_00000034795840632224553250000004383769985069347973_);" d="M262.715,158.134
				c-3.307,3.657-24.92,32.967-11.909,31.318c16.033-10.797,31.968-28.604,37.665-47.481c1.667-16.126-0.589-32.529-0.563-48.735
				C285.258,116.549,276.489,139.139,262.715,158.134z"/>
		</g>
	</g>
	<g>
		
			<linearGradient id="SVGID_00000047760585638530509070000000160127777691677869_" gradientUnits="userSpaceOnUse" x1="497.0894" y1="-1206.2576" x2="516.679" y2="-1157.0446" gradientTransform="matrix(0.5065 0.8622 -0.8622 0.5065 -916.1016 420.9648)">
			<stop  offset="0.243" style="stop-color:#FFB1A6"/>
			<stop  offset="1" style="stop-color:#FF6261"/>
		</linearGradient>
		<path style="fill:url(#SVGID_00000047760585638530509070000000160127777691677869_);" d="M332.101,271.657
			c5.448-5.385,12.612-9.375,18.756-11.439c3.204-1.073,6.114-1.638,8.929-2.112c4.752-0.799,9.309-1.351,13.658-1.649
			c2.8-0.18,5.564,0.411,3.661,3.634c-1.496,2.601-4.808,4.799-7.518,6.297c-1.004,0.559-2.143,1.228-2.804,2.257
			c-0.517,0.805-0.589,1.635-1.078,2.448c-0.405,0.674-1.028,1.215-1.614,1.718c-3.306,2.825-6.569,5.836-9.891,6.787
			c0.267,2.383-2.191,5.111-4.304,6.557c-6.549,4.523-14.008,5.772-20.273,3.699c-2.846-0.956-5.374-1.836-5.024-5.629
			C324.841,280.763,329.19,274.401,332.101,271.657z"/>
		
			<linearGradient id="SVGID_00000039855854758500270030000017748834100121408190_" gradientUnits="userSpaceOnUse" x1="523.3959" y1="-1188.4956" x2="523.3959" y2="-1138.3732" gradientTransform="matrix(0.5065 0.8622 -0.8622 0.5065 -916.1016 420.9648)">
			<stop  offset="0.243" style="stop-color:#FFB1A6"/>
			<stop  offset="1" style="stop-color:#FF6261"/>
		</linearGradient>
		<path style="fill:url(#SVGID_00000039855854758500270030000017748834100121408190_);" d="M336.096,296.789
			c4.428,0.871,9.031-0.039,13.433-1.435c4.363-1.377,8.682-3.292,12.467-6.749c3.792-3.45,7.117-8.7,8.867-14.054
			c-0.785,0.31-1.568,0.621-2.35,0.932c1.46-1.563,2.393-3.873,2.241-5.426c0.669-1.046,1.571-2.015,2.553-2.777
			c0.907-1.465,0.61-2.746-0.341-3.042c-0.953-0.297-2.383,0.127-3.763,0.583c-10.776,3.543-21.889,9.335-32.117,15.272
			c-3.893,2.29-11.279,4.382-10.526,9.596C327.108,293.334,333.043,296.737,336.096,296.789z"/>
		
			<linearGradient id="SVGID_00000027563392862349600910000008323282506193703337_" gradientUnits="userSpaceOnUse" x1="505.694" y1="-1192.3947" x2="505.694" y2="-1138.6384" gradientTransform="matrix(0.5065 0.8622 -0.8622 0.5065 -916.1016 420.9648)">
			<stop  offset="0.243" style="stop-color:#FFB1A6"/>
			<stop  offset="1" style="stop-color:#FF6261"/>
		</linearGradient>
		<path style="fill:url(#SVGID_00000027563392862349600910000008323282506193703337_);" d="M344.704,269.848
			c5.672-6.352,11.834-12.733,19.324-18.185c1.181-0.862,2.428-1.731,3.338-2.516c0.907-0.787,1.403-1.471,0.76-1.52
			c-0.642-0.049-2.678,0.76-3.545,1.52c1.612-1.11,1.867-1.902,0.565-1.695c-1.303,0.206-3.732,1.233-5.408,2.338
			c0.629-0.75,1.301-1.471,2.015-2.162c-3.149,0.762-7.716,2.993-11.244,5.265c-7.452,4.718-13.259,10.346-17.788,16.42
			c-2.329,3.11-4.349,6.337-6.065,9.633c-2.766,5.148-3.435,11.391,2.249,7.611C333.911,283.178,339.792,275.126,344.704,269.848z"
			/>
		
			<linearGradient id="SVGID_00000135680695399519755720000003334725983988967055_" gradientUnits="userSpaceOnUse" x1="516.0366" y1="-1150.5134" x2="516.0366" y2="-1117.7155" gradientTransform="matrix(0.5065 0.8622 -0.8622 0.5065 -916.1016 420.9648)">
			<stop  offset="0.243" style="stop-color:#63B38F"/>
			<stop  offset="1" style="stop-color:#008E4E"/>
		</linearGradient>
		<path style="fill:url(#SVGID_00000135680695399519755720000003334725983988967055_);" d="M330.642,270.91
			c0.493,1.631-0.165,4.307-1.587,6.857c-0.764,1.358-1.738,2.648-2.372,4.034c-0.638,1.385-0.838,3.016-0.062,3.733
			c4.47-1.115,8.875-1.662,13.127-1.626c-0.737,2.568-3.189,4.094-5.278,5.095c-1.896,0.913-3.781,1.828-5.655,2.742
			c3.512,1.5,6.839,3.732,10.09,6.559c-3.017,0.579-6.146,0.387-9.049-0.568c-1.295-0.426-2.565-1.007-3.916-0.944
			c-3.436,0.16-6.032,4.189-9.209,5.628c-4.018,1.82-9.329-1.442-9.66-6.597c-0.049-0.757,0.011-1.585,0.397-2.291
			c0.338-0.619,0.872-1.055,1.388-1.459c3.77-2.917,9.14-4.817,12.743-8.343C322.693,282.33,330.75,272.157,330.642,270.91z"/>
		
			<linearGradient id="SVGID_00000147210951679513582390000002795717259296403329_" gradientUnits="userSpaceOnUse" x1="525.6979" y1="-1136.8075" x2="525.6979" y2="-1037.004" gradientTransform="matrix(0.5065 0.8622 -0.8622 0.5065 -916.1016 420.9648)">
			<stop  offset="0.243" style="stop-color:#63B38F"/>
			<stop  offset="1" style="stop-color:#008E4E"/>
		</linearGradient>
		<path style="fill:url(#SVGID_00000147210951679513582390000002795717259296403329_);" d="M256.229,364.204
			c0.124-4.886,2.89-12.518,8.107-21.401c5.07-8.749,12.459-19.283,22.929-28.363c5.828-5.091,12.615-9.658,19.929-12.861
			c0.112-0.049,0.214-0.11,0.307-0.179c1.419,1.922,3.654,3.079,6.04,2.568c3.334-0.714,6.67-1.429,10.007-2.144
			c-5.2-2.542-10.458-4.102-15.874-4.565c1.6-0.76,3.142-1.809,4.593-3.097c0.615-0.546,1.219-1.142,1.72-1.866
			c1.059-1.536,1.565-3.452,2.445-5.19c1.201-2.388,3.133-4.503,5.245-5.93c-4.167,2.778-8.187,5.586-12.063,8.41
			c-3.122,2.259-4.188,5.806-3.472,8.831c-13.262,5.82-24.732,15.592-33.036,25.472c-8.651,10.172-14.725,20.089-18.247,28.111
			c-1.981,4.494-3.139,8.421-3.445,11.494C251.321,364.242,256.213,364.858,256.229,364.204z"/>
	</g>
	<g>
		
			<linearGradient id="SVGID_00000114071713397157554890000015023830535080917684_" gradientUnits="userSpaceOnUse" x1="426.1372" y1="227.4326" x2="426.1372" y2="280.0522" gradientTransform="matrix(0.9372 0.3487 -0.3487 0.9372 5.2188 -216.0909)">
			<stop  offset="0.243" style="stop-color:#63B38F"/>
			<stop  offset="1" style="stop-color:#008E4E"/>
		</linearGradient>
		<path style="fill:url(#SVGID_00000114071713397157554890000015023830535080917684_);" d="M304.779,171.192
			c1.851-9.229-0.167-19.172-5.47-26.949c6.112,0.529,8.073,10.021,14.14,10.933c2.093-5.176,6.146-9.533,11.158-11.993
			c0.352-0.173,0.724-0.34,1.116-0.33c1.643,0.044,1.607,2.518,1.006,4.049c-1.397,3.558-2.793,7.116-4.19,10.674
			c-0.254,0.647-0.512,1.333-0.399,2.018c0.36,2.173,3.5,2.106,5.604,1.456c6.573-2.029,13.146-4.057,19.719-6.086
			c1.063,0.943-0.12,2.631-1.272,3.465c-3.158,2.287-6.555,4.246-10.117,5.834c-1.291,0.576-2.622,1.113-3.736,1.983
			c-2.747,2.145-3.654,5.814-4.853,9.087c-2.413,6.589-12.346,23.11-21.143,20.189C297.354,192.536,303.605,177.044,304.779,171.192
			z"/>
		
			<linearGradient id="SVGID_00000103226461815066802620000006595209084798236833_" gradientUnits="userSpaceOnUse" x1="414.6277" y1="162.2548" x2="413.8312" y2="190.9294" gradientTransform="matrix(0.9372 0.3487 -0.3487 0.9372 5.2188 -216.0909)">
			<stop  offset="0.243" style="stop-color:#FFB1A6"/>
			<stop  offset="1" style="stop-color:#FF6261"/>
		</linearGradient>
		<path style="fill:url(#SVGID_00000103226461815066802620000006595209084798236833_);" d="M352.896,84.825
			c-1.226,0.684-2.042,2.464-3.418,2.183c-0.698-0.143-1.157-0.803-1.483-1.437c-1.242-2.414-2.594-5.837-5.272-5.39
			c-1.493,0.249-2.57,1.77-4.078,1.889c-3.2,0.252-4.93-5.681-7.9-4.464c-1.255,0.514-1.823,2.191-3.146,2.484
			c-1.493,0.331-2.62-1.262-3.929-2.053c-3.53-2.135-8.038,1.796-12.045,0.816c-0.527-0.129-1.062-0.345-1.595-0.243
			c-1.337,0.253-1.504,2.272-0.642,3.325c0.862,1.054,2.245,1.496,3.387,2.237c-3.663,15.863-3.368,32.625,0.851,48.35
			c0.706,2.631,1.664,5.436,3.918,6.965c3.797,2.576,8.933,0.215,12.637-2.494c9.9-7.242,17.793-16.992,23.521-27.794
			c2.215-4.176,4.802-8.678,4.816-13.513C358.523,93.095,358.168,81.885,352.896,84.825z"/>
		
			<linearGradient id="SVGID_00000095317761644613240670000006008744031398051755_" gradientUnits="userSpaceOnUse" x1="486.6388" y1="219.4642" x2="443.6997" y2="218.4419" gradientTransform="matrix(0.9372 0.3487 -0.3487 0.9372 5.2188 -216.0909)">
			<stop  offset="0.243" style="stop-color:#FFB1A6"/>
			<stop  offset="1" style="stop-color:#FF6261"/>
		</linearGradient>
		<path style="fill:url(#SVGID_00000095317761644613240670000006008744031398051755_);" d="M376.326,137.941
			c3.319,0.007,6.833,0.144,10.228,1.348c0.653,0.232,1.338,0.53,1.741,0.978c0.62,0.689,0.336,1.426-0.035,2.001
			c-1.351,2.094-3.514,3.801-6.266,4.944c2.51,0.012,5.319,2.237,5.217,4.007c-0.102,1.77-2.778,2.661-5.389,1.954
			c1.277,1.578,1.311,3.41,0.082,4.483c-1.228,1.072-3.651,1.326-5.929,0.621c0.178,4.13-0.368,8.994-5.709,9.716
			c0.429,2.314-2.721,3.6-5.971,3.215c-3.25-0.384-6.461-1.951-9.442-3.513c-6.079-3.184-11.983-6.592-17.667-10.197
			c-1.955-1.24-3.981-2.597-4.947-4.229C323.611,138.696,364.397,137.917,376.326,137.941z"/>
		
			<linearGradient id="SVGID_00000011021773053219223010000016357181414332336803_" gradientUnits="userSpaceOnUse" x1="1070.9639" y1="860.3028" x2="1105.9111" y2="871.0558" gradientTransform="matrix(0.5488 0.8359 -0.8359 0.5488 405.0241 -1278.373)">
			<stop  offset="0.243" style="stop-color:#FFB1A6"/>
			<stop  offset="1" style="stop-color:#FF6261"/>
		</linearGradient>
		<path style="fill:url(#SVGID_00000011021773053219223010000016357181414332336803_);" d="M306.997,138.711
			c-2.767-13.9-8.208-27.263-15.94-39.141c-0.924-1.42-1.938-2.872-3.431-3.672c-1.493-0.8-3.6-0.715-4.622,0.636
			c-1.243,1.641-0.717,4.665-2.671,5.312c-2.431,0.805-4.495-3.687-6.793-2.558c-1.778,0.873-1.067,4.108-2.845,4.98
			c-1.552,0.761-3.383-1.092-5.024-0.552c-1.045,0.344-1.572,1.586-1.463,2.681c0.109,1.095,0.698,2.075,1.273,3.014
			c2.13,3.476,4.26,6.953,6.391,10.429c-1.75,0.927-3.501,1.854-5.251,2.781c-0.093,1.885,2.814,3.118,2.316,4.939
			c-0.164,0.599-0.672,1.029-1.046,1.525c-1.78,2.359,0.489,6.406,3.43,6.118c-0.977,0.762-1.953,1.523-2.93,2.285
			c-0.369,0.288,9.737,7.788,10.752,8.376c4.113,2.384,8.558,4.193,13.167,5.357c3.301,0.834,10.275,2.918,13.448,1.087
			C309.63,150.072,307.695,142.219,306.997,138.711z"/>
		
			<linearGradient id="SVGID_00000183931032724855915420000003672176126883133856_" gradientUnits="userSpaceOnUse" x1="387.2974" y1="160.6049" x2="386.7972" y2="205.3724" gradientTransform="matrix(0.9372 0.3487 -0.3487 0.9372 5.2188 -216.0909)">
			<stop  offset="0.243" style="stop-color:#FFB1A6"/>
			<stop  offset="1" style="stop-color:#FF6261"/>
		</linearGradient>
		<path style="fill:url(#SVGID_00000183931032724855915420000003672176126883133856_);" d="M320.059,103.604
			c0.151-8.17,0.04-17.126-5.215-23.383c-2.057-2.45-5.069-4.373-8.259-4.144s-6.196,3.283-5.53,6.412
			c-2.066-0.954-5.066-1.636-6.154,0.363c-0.764,1.405-0.053,3.542-1.355,4.47c-1.656,1.181-3.868-1.364-5.816-0.781
			c-1.857,0.556-1.975,3.41-3.688,4.318c-1.148,0.609-2.537,0.111-3.834,0.034c-3.205-0.191-6.3,3.133-5.383,6.211
			c0.533,1.79,2.1,3.039,3.526,4.246c11.257,9.53,18.338,23.305,29.781,32.61c0.667,0.542,1.487,1.1,2.318,0.879
			c0.599-0.16,1.018-0.684,1.393-1.18c2.921-3.855,7.249-7.878,7.895-12.797C320.471,115.284,319.954,109.236,320.059,103.604z"/>
		
			<linearGradient id="SVGID_00000145023620127991634110000001669804410758090126_" gradientUnits="userSpaceOnUse" x1="465.6175" y1="168.8148" x2="439.0341" y2="212.4235" gradientTransform="matrix(0.9372 0.3487 -0.3487 0.9372 5.2188 -216.0909)">
			<stop  offset="0.243" style="stop-color:#FFB1A6"/>
			<stop  offset="1" style="stop-color:#FF6261"/>
		</linearGradient>
		<path style="fill:url(#SVGID_00000145023620127991634110000001669804410758090126_);" d="M342.643,119.174
			c3.119-9.217,8.108-17.748,14.209-25.328c1.469-1.825,3.144-3.689,5.406-4.297c2.262-0.608,5.168,0.694,5.365,3.028
			c0.112,1.336-0.632,2.804,0.061,3.951c0.853,1.411,2.979,1.023,4.503,0.393c1.524-0.63,3.533-1.223,4.607,0.029
			c0.424,0.495,0.566,1.165,0.694,1.805c0.509,2.553,0.997,5.304-0.077,7.676c1.142,0.769,2.283,1.538,3.425,2.307
			c0.375,0.252,0.772,0.534,0.921,0.96c0.173,0.496-0.04,1.034-0.232,1.522c-2.074,5.283-1.916,11.403,0.428,16.572
			c0.281,0.62,0.597,1.243,0.662,1.92c0.234,2.412-2.567,3.886-4.923,4.454c0.624,1.768,0.841,3.789,0.025,5.477
			c-0.816,1.688-2.9,2.834-4.64,2.136c-0.695-0.278-1.294-0.816-2.035-0.923c-0.98-0.141-1.943,0.512-2.925,0.381
			c-1.511-0.202-2.43-2.148-3.954-2.115c-1.105,0.024-1.856,1.07-2.699,1.785c-1.592,1.349-3.807,1.614-5.884,1.821
			c-3.774,0.378-7.548,0.755-11.323,1.133c-3.565,0.357-7.903,0.362-9.82-2.664c-2.199-3.471,0.388-7.755,2.51-10.551
			C339.731,126.984,341.154,123.576,342.643,119.174z"/>
		
			<linearGradient id="SVGID_00000146466316386167194550000016173984072988656056_" gradientUnits="userSpaceOnUse" x1="386.8803" y1="196.8614" x2="414.7581" y2="232.7041" gradientTransform="matrix(0.9372 0.3487 -0.3487 0.9372 5.2188 -216.0909)">
			<stop  offset="0.243" style="stop-color:#FFB1A6"/>
			<stop  offset="1" style="stop-color:#FF6261"/>
		</linearGradient>
		<path style="fill:url(#SVGID_00000146466316386167194550000016173984072988656056_);" d="M325.17,127.65
			c1.118-4.35,2.802-8.707,2.39-13.179c-0.527-5.72-4.829-10.906-10.354-12.48c-0.886-0.252-1.948-0.382-2.634,0.232
			c-0.74,0.662-0.691,1.883-1.358,2.62c-1.18,1.303-3.298,0.168-4.641-0.967s-3.528-2.198-4.629-0.827
			c-0.315,0.392-0.438,0.906-0.721,1.321c-1.03,1.513-3.34,0.99-5.063,0.37c-1.722-0.62-4.151-0.899-4.916,0.764
			c-0.657,1.427,0.524,3.372-0.485,4.577c-1.578,1.884-4.989-1.419-6.955,0.056c-1.821,1.367-0.08,5.17-2.141,6.138
			c-1.527,0.718-3.699-1.107-4.852,0.124c-0.602,0.643-0.367,1.74,0.226,2.392s1.438,0.999,2.205,1.433
			c3.98,2.254,5.858,6.86,7.721,11.037c1.956,4.386,4.192,8.648,6.69,12.749c1.177,1.933,2.476,3.894,4.402,5.081
			c4.679,2.883,15.736,1.134,19.303-3.238C323.005,141.385,323.791,133.014,325.17,127.65z"/>
		
			<linearGradient id="SVGID_00000164482262610820685880000012190740908079133853_" gradientUnits="userSpaceOnUse" x1="434.1546" y1="174.5079" x2="425.393" y2="220.7055" gradientTransform="matrix(0.9372 0.3487 -0.3487 0.9372 5.2188 -216.0909)">
			<stop  offset="0.243" style="stop-color:#FFB1A6"/>
			<stop  offset="1" style="stop-color:#FF6261"/>
		</linearGradient>
		<path style="fill:url(#SVGID_00000164482262610820685880000012190740908079133853_);" d="M321.126,92.804
			c0.46-1.868,2.048-3.344,3.972-3.381c5.602-0.107,3.717,10.513,8.658,10.576c3.029,0.039,5.176-4.663,7.967-3.484
			c1.82,2.325-0.752,6.582,2.465,8.098c1.57,0.74,3.394,0.207,4.649-0.992c1.667-1.593,5.818-2.972,6.889-0.506l-1.838,6.351
			c2.096,0.506,4.938-1.407,7.397-2.076c1.033-0.282,1.963,0.719,1.656,1.745c-0.638,2.137-1.57,5.226-1.829,6.136
			c2.123,1.278,4.953,1.276,7.073-0.006c13.822-4.953-3.826,17.031-5.938,18.907c-9.488,8.434-33.139,33.881-41.007,15.606
			C314.214,133.457,317.224,108.647,321.126,92.804z"/>
		
			<linearGradient id="SVGID_00000033350392546258999180000005366449189091991179_" gradientUnits="userSpaceOnUse" x1="406.2165" y1="258.9292" x2="414.9785" y2="239.0156" gradientTransform="matrix(0.9372 0.3487 -0.3487 0.9372 5.2188 -216.0909)">
			<stop  offset="0.243" style="stop-color:#FFB1A6"/>
			<stop  offset="1" style="stop-color:#FF6261"/>
		</linearGradient>
		<path style="fill:url(#SVGID_00000033350392546258999180000005366449189091991179_);" d="M275.254,138.74
			c-0.863,0.061-1.812,0.206-2.371,0.867c-1.208,1.428,0.428,3.476,1.958,4.552c2.677,1.883,5.467,3.602,8.352,5.147
			c-1.634,2.838-3.267,5.676-4.901,8.515c3.085,0.27,7.166,1.696,6.734,4.762c-0.228,1.617-1.803,3.155-1.104,4.631
			c0.398,0.84,1.377,1.203,2.262,1.487c3.924,1.258,7.848,2.516,11.772,3.773c2.447,0.784,5.419,2.319,5.146,4.875
			c-0.061,0.574-0.296,1.163-0.108,1.709c0.324,0.938,1.581,1.06,2.572,1.015c2.858-0.131,5.716-0.262,8.574-0.393
			c1.193-0.055,2.434-0.101,3.528,0.375c2.045,0.889,3.175,3.421,5.36,3.869c1.775,0.364,3.561-0.899,4.4-2.504
			c0.839-1.606,0.948-3.48,1.04-5.289c0.676,2.216,3.524,3.396,5.639,2.45c2.115-0.946,3.157-3.682,2.364-5.859
			c1.249,0.473,2.574,0.953,3.888,0.716c1.314-0.237,2.541-1.492,2.237-2.792c-0.174-0.745-0.782-1.302-1.382-1.777
			c-3.461-2.739-7.75-4.417-12.151-4.753c-1.491-0.114-3.011-0.08-4.453-0.481c-4.691-1.304-7.448-5.629-12.427-6.492
			C314.704,147.219,282.636,137.759,275.254,138.74z"/>
		
			<linearGradient id="SVGID_00000116940288791284284520000001543324992883434626_" gradientUnits="userSpaceOnUse" x1="467.2611" y1="230.5519" x2="433.8084" y2="229.7554" gradientTransform="matrix(0.9372 0.3487 -0.3487 0.9372 5.2188 -216.0909)">
			<stop  offset="0.243" style="stop-color:#FFB1A6"/>
			<stop  offset="1" style="stop-color:#FF6261"/>
		</linearGradient>
		<path style="fill:url(#SVGID_00000116940288791284284520000001543324992883434626_);" d="M335.314,153.422
			c2.522-1.985,4.48-4.59,6.841-6.763c5.656-5.204,13.467-7.692,21.152-7.823c2.727-0.047,6.423,1.378,5.781,4.029
			c-0.686,2.83-5.845,3.052-5.844,5.964c0,1.309,1.151,2.275,1.883,3.359c0.733,1.084,0.766,3.003-0.513,3.277
			c-2.49-0.868-5.248-0.947-7.784-0.225c-0.595,0.17-1.21,0.404-1.593,0.891c-1.242,1.578,0.89,3.571,2.665,4.51
			c1.775,0.939,3.695,3.275,2.177,4.59c-1.638-0.677-3.343-1.367-5.113-1.278c-1.77,0.089-3.622,1.197-3.963,2.936
			c-0.229,1.165,0.242,2.377,0.047,3.548c-0.331,1.984-2.531,3.206-4.541,3.15s-3.858-1.054-5.618-2.027
			c0.502,2.032-2.094,3.661-4.145,3.242c-2.051-0.419-3.618-2.009-5.309-3.241c-1.692-1.232-4.014-2.15-5.822-1.095
			c-0.627,0.366-1.129,0.943-1.804,1.21c-4.614,1.826-6.7-10.368-4.458-12.913C322.384,155.321,331.08,156.755,335.314,153.422z"/>
		
			<linearGradient id="SVGID_00000072270103991013613780000017461233265939195792_" gradientUnits="userSpaceOnUse" x1="392.2719" y1="220.8473" x2="423.3361" y2="245.5394" gradientTransform="matrix(0.9372 0.3487 -0.3487 0.9372 5.2188 -216.0909)">
			<stop  offset="0.243" style="stop-color:#FFB1A6"/>
			<stop  offset="1" style="stop-color:#FF6261"/>
		</linearGradient>
		<path style="fill:url(#SVGID_00000072270103991013613780000017461233265939195792_);" d="M319.629,147.321
			c-0.934-5.376-1.868-10.752-2.802-16.128c-0.527-3.031-1.073-6.121-2.515-8.838c-1.442-2.718-3.958-5.051-7.007-5.465
			c-1.647-0.224-3.532,0.248-4.413,1.658c-0.951,1.523-0.426,3.481-0.209,5.264c0.217,1.783-0.255,4.056-1.998,4.491
			c-0.625,0.156-1.288,0.025-1.924,0.126c-1.58,0.251-2.649,2.164-2.036,3.642c0.346,0.832,1.12,1.523,1.124,2.424
			c0.009,1.95-2.943,1.971-4.555,3.069c-1.47,1.001-1.768,3.144-1.161,4.815c0.607,1.672,1.906,2.983,3.168,4.236
			c-2.266,1.973-4.123,4.413-5.42,7.123c2.168,1.507,4.612,2.615,7.173,3.254c-0.601,2.479-0.711,5.916,1.713,6.706
			c1.179,0.384,14.26-1.655,15.814-2.382C320.425,158.585,320.709,153.536,319.629,147.321z"/>
		
			<linearGradient id="SVGID_00000034071845599281967510000002056059464272771487_" gradientUnits="userSpaceOnUse" x1="436.7055" y1="212.2473" x2="414.4036" y2="245.7002" gradientTransform="matrix(0.9372 0.3487 -0.3487 0.9372 5.2188 -216.0909)">
			<stop  offset="0.243" style="stop-color:#FFB1A6"/>
			<stop  offset="1" style="stop-color:#FF6261"/>
		</linearGradient>
		<path style="fill:url(#SVGID_00000034071845599281967510000002056059464272771487_);" d="M313.432,149.689
			c-0.657-9.067-1.164-18.801,3.539-26.582c0.535-0.885,1.228-1.799,2.238-2.016c2.042-0.439,3.367,2.073,3.844,4.107
			c0.476,2.034,1.454,4.596,3.542,4.538c1.578-0.044,2.75-1.708,4.328-1.774c1.512-0.063,2.709,1.458,2.854,2.964
			c0.145,1.507-0.472,2.97-1.075,4.358c2.846,1.112,5.879,1.742,8.931,1.857c-3.012,1.784-2.125,6.293-0.944,9.589
			c1.181,3.295,1.736,7.96-1.462,9.385c-1.244,0.554-2.948,0.521-3.576,1.73c-0.917,1.765,1.663,3.664,1.29,5.618
			c-0.513,2.687-5.257,1.852-6.59,4.24c-0.623,1.115-0.237,2.531-0.608,3.754c-1.965,6.486-11.272-0.898-13.105-3.672
			C313.22,162.615,313.864,155.646,313.432,149.689z"/>
		
			<linearGradient id="SVGID_00000077304553015283965340000010068990105633641644_" gradientUnits="userSpaceOnUse" x1="404.6023" y1="264.1348" x2="404.6023" y2="536.7286" gradientTransform="matrix(0.9372 0.3487 -0.3487 0.9372 5.2188 -216.0909)">
			<stop  offset="0.243" style="stop-color:#63B38F"/>
			<stop  offset="1" style="stop-color:#008E4E"/>
		</linearGradient>
		<path style="fill:url(#SVGID_00000077304553015283965340000010068990105633641644_);" d="M340.746,197.885
			c-7.855,19.726-18.955,39.074-36.482,51.059c-5.086,3.478-10.626,6.273-15.572,9.947c-2.609,1.938-7.512,6.37-11.711,11.428
			c4.192-11.836,8.959-23.472,14.163-34.922c5.409-11.903,11.226-23.614,17.171-35.257c2.535-0.546,5.738-2.437,9.744-6.726
			c0,0,2.762-3.771,7.214-5.573c0,0-9.172-3.343-18.93,7.678l-5.916-16.921c0,0-5.661,11.008-0.398,16.365
			c0,0,1.041,3.063,3.662,4.558c-9.781,19.184-19.175,38.603-26.979,58.682c-0.983-5.578-7.231-40.042-15.47-63.069
			c-8.987-25.115-26.572-28.866-20.061-44.866c0,0-13.865,14.152,8.687,44.621c9.065,12.247-0.941,33.43,26.673,63.76
			c-0.639,1.65-1.289,3.296-1.905,4.955c-8.22,22.125-14.152,45.083-17.611,68.434c-1.933,13.051-12.908,101.467-13.294,114.654
			c-0.083,2.835,4.331,3.247,4.415,0.386c0.683-23.368,13.593-121.937,19.159-144.647c1.088-4.439,2.303-8.838,3.58-13.216
			c2.581,2.781,6.151-4.479,8.589-6.988c4.081-4.199,8.616-7.956,13.513-11.167c5.593-3.67,11.643-6.64,17.007-10.637
			c8.894-6.628,15.631-15.96,19.754-26.258C334.448,222.423,335.836,209.542,340.746,197.885z"/>
	</g>
	
		<linearGradient id="SVGID_00000137820669450027775580000011405157486102154426_" gradientUnits="userSpaceOnUse" x1="-103.5147" y1="-637.4884" x2="-75.522" y2="-626.3737" gradientTransform="matrix(-0.5705 0.8213 -0.8213 -0.5705 -174.7356 -84.4495)">
		<stop  offset="0.243" style="stop-color:#FFB1A6"/>
		<stop  offset="1" style="stop-color:#FF6261"/>
	</linearGradient>
	<path style="fill:url(#SVGID_00000137820669450027775580000011405157486102154426_);" d="M408.727,201.826
		c-0.422-1.941-3.263-3.177-4.474-1.603c1.164-0.977,1.191-3.01,0.054-4.017c-1.137-1.008-3.152-0.736-3.982,0.536
		c0.303-2.051,0.314-4.684-1.564-5.561c-1.277,1.037-2.375,2.293-3.232,3.696c-0.74,0.194-0.808-1.024-1.112-1.726
		c-0.412-0.954-1.823-1.069-2.687-0.492c-0.864,0.577-1.318,1.583-1.755,2.526c-1.578,3.406-3.551,6.73-6.456,9.107
		c-2.905,2.377-6.89,3.679-10.499,2.647c-0.921-0.264-1.832-0.675-2.789-0.629c-6.336,0.303,6.332,7.286,7.69,7.814
		c3.231,1.256,6.617,2.545,10.142,2.41C394.276,216.297,410.419,209.613,408.727,201.826z"/>
	<g>
		
			<linearGradient id="SVGID_00000174589132764986139980000012426570519246812579_" gradientUnits="userSpaceOnUse" x1="132.0677" y1="116.1372" x2="127.1415" y2="97.3285" gradientTransform="matrix(0.9918 0.1275 -0.1275 0.9918 -9.4374 24.6714)">
			<stop  offset="0.243" style="stop-color:#FFB1A6"/>
			<stop  offset="1" style="stop-color:#FF6261"/>
		</linearGradient>
		<path style="fill:url(#SVGID_00000174589132764986139980000012426570519246812579_);" d="M108.497,158.792
			c-3.031-0.294-5.342-2.757-7.27-5.115c-2.855-3.49-5.637-7.333-6.236-11.802c-0.619-4.612,1.299-9.393,4.635-12.637
			c3.154-3.067,8.39-5.688,12.781-4.869c-2.545,5.598-5.327,10.69-6.069,17.023C106.112,143.333,105.756,158.526,108.497,158.792z"
			/>
		
			<linearGradient id="SVGID_00000165230635400336430350000007344249904256338827_" gradientUnits="userSpaceOnUse" x1="129.5127" y1="90.0653" x2="123.6605" y2="66.8816" gradientTransform="matrix(0.9918 0.1275 -0.1275 0.9918 -9.4374 24.6714)">
			<stop  offset="0.243" style="stop-color:#FFB1A6"/>
			<stop  offset="1" style="stop-color:#FF6261"/>
		</linearGradient>
		<path style="fill:url(#SVGID_00000165230635400336430350000007344249904256338827_);" d="M98.677,125.091
			c3.268-2.728,6.998-4.84,10.959-6.4c4.371-1.721,10.062-2.789,13.174,0.731c0.998,1.129,1.563,2.753,1.067,4.176
			c-0.972,2.789-4.806,2.94-7.737,2.571c0.987,1.235,0.9,3.161-0.101,4.385c-1.001,1.224-2.772,1.706-4.296,1.284
			c-1.013-0.281-1.901-0.911-2.633-1.665c-0.157,2.236-0.417,4.698-2.056,6.227c-1.639,1.529-5.074,0.97-5.235-1.265
			c0.534,3.37-1.173,6.984-4.114,8.712C89.656,148.578,87.955,134.04,98.677,125.091z"/>
	</g>
	<g>
		
			<linearGradient id="SVGID_00000152963083280085080810000009171297150666221474_" gradientUnits="userSpaceOnUse" x1="1973.7794" y1="-191.2904" x2="1932.1351" y2="-159.0497" gradientTransform="matrix(-0.9882 0.1535 0.1535 0.9882 2123.1216 18.7359)">
			<stop  offset="0.243" style="stop-color:#FFB1A6"/>
			<stop  offset="1" style="stop-color:#FF6261"/>
		</linearGradient>
		<path style="fill:url(#SVGID_00000152963083280085080810000009171297150666221474_);" d="M170.907,125.667
			c-2.232-1.541-4.903-3.025-7.522-2.32c-2.619,0.705-3.984,4.849-1.59,6.124c-1.888-1.064-4.592-0.23-5.552,1.713
			c-0.96,1.943,0.019,4.598,2.011,5.452c-1.844,0.767-2.902,3.045-2.299,4.949c0.603,1.904,2.779,3.158,4.728,2.724
			c-2.271,3.199-0.382,8.425,3.41,9.433c-0.999-1.087-3.034-0.037-3.251,1.424c-0.217,1.46,0.763,2.833,1.869,3.811
			c1.106,0.978,2.412,1.778,3.226,3.009c0.618,0.935,0.902,2.047,1.378,3.062c0.68,1.451,1.746,2.686,2.883,3.815
			c5.722,5.678,25.811,16.027,30.799,4.267c3.744-8.826-5.681-21.975-10.555-28.501
			C185.003,137.344,178.392,130.837,170.907,125.667z"/>
		
			<linearGradient id="SVGID_00000012461941835367258790000006313735100382779302_" gradientUnits="userSpaceOnUse" x1="1880.4357" y1="-197.1075" x2="1904.1685" y2="-169.7924" gradientTransform="matrix(-0.9882 0.1535 0.1535 0.9882 2123.1216 18.7359)">
			<stop  offset="0.243" style="stop-color:#FFB1A6"/>
			<stop  offset="1" style="stop-color:#FF6261"/>
		</linearGradient>
		<path style="fill:url(#SVGID_00000012461941835367258790000006313735100382779302_);" d="M202.601,128.329
			c0.589-6.731,1.978-13.926,6.874-18.582c1.581-1.504,3.641-2.717,5.818-2.56c2.177,0.157,4.277,2.148,3.911,4.299
			c1.758-1.758,4.217-2.793,6.703-2.822c0.882,1.035,1.312,2.443,1.158,3.794c3.655-0.364,7.444,0.954,10.083,3.509
			c2.084-1.594,5.203-1.668,7.36-0.175c2.158,1.493,3.188,4.437,2.432,6.949c0.895-2.06,4.259-1.938,5.531-0.087
			c1.272,1.851,0.743,4.479-0.596,6.282c-1.339,1.803-3.323,2.99-5.201,4.221c-14.425,9.453-25.285,24.214-30.017,40.799
			c-0.443,1.552-1.591,3.54-3.089,2.937c-0.539-0.217-0.887-0.734-1.194-1.227C203.544,161.495,201.173,144.65,202.601,128.329z"/>
		
			<linearGradient id="SVGID_00000098205389669863013640000009976733046059895467_" gradientUnits="userSpaceOnUse" x1="1928.6492" y1="-202.8325" x2="1927.7855" y2="-171.7407" gradientTransform="matrix(-0.9882 0.1535 0.1535 0.9882 2123.1216 18.7359)">
			<stop  offset="0.243" style="stop-color:#FFB1A6"/>
			<stop  offset="1" style="stop-color:#FF6261"/>
		</linearGradient>
		<path style="fill:url(#SVGID_00000098205389669863013640000009976733046059895467_);" d="M208.606,117.434
			c-0.607-2.256-1.328-4.551-2.796-6.369c-1.468-1.817-3.853-3.071-6.136-2.576c-2.283,0.495-4.026,3.177-3.039,5.294
			c-2.127-2.105-5.099-3.331-8.092-3.337c-0.29,1.885-1.074,3.692-2.253,5.192c-1.019-1.94-3.412-3.047-5.55-2.568
			c-2.138,0.48-3.829,2.503-3.922,4.693c-1.525-1.464-4.167-1.555-5.79-0.2c-1.623,1.355-2.004,3.971-0.835,5.733
			c-1.253-1.106-3.407-0.003-3.915,1.589c-0.508,1.592,0.086,3.305,0.701,4.859c6.593,16.675,16.724,34.874,30.344,46.881
			c14.108,12.437,14.981-17.385,15.083-25.392C212.552,139.869,211.568,128.435,208.606,117.434z"/>
		
			<linearGradient id="SVGID_00000178170239178861091770000016259448260897088680_" gradientUnits="userSpaceOnUse" x1="1889.7548" y1="-207.4933" x2="1901.8451" y2="-185.9995" gradientTransform="matrix(-0.9882 0.1535 0.1535 0.9882 2123.1216 18.7359)">
			<stop  offset="0.243" style="stop-color:#FFB1A6"/>
			<stop  offset="1" style="stop-color:#FF6261"/>
		</linearGradient>
		<path style="fill:url(#SVGID_00000178170239178861091770000016259448260897088680_);" d="M206.795,118.966
			c0.148-4.062,0.454-8.175,1.798-12.011c0.51-1.456,1.201-2.907,2.374-3.908c1.173-1.001,2.926-1.45,4.298-0.744
			c1.967,1.011,2.244,3.626,2.809,5.764c0.095,0.36,0.227,0.746,0.542,0.944c0.708,0.443,1.496-0.374,2.219-0.794
			c1.819-1.057,4.215,0.771,4.536,2.85c0.322,2.079-0.709,4.102-1.707,5.954c1.319-1.449,3.989,0.016,4.279,1.954
			c0.29,1.938-0.895,3.762-2.07,5.329c0.476,0.266,0.952,0.532,1.429,0.798c-0.731,0.885-0.837,2.235-0.253,3.223
			c0.267,0.452,0.666,0.841,0.794,1.351c0.177,0.704-0.211,1.416-0.599,2.029c-2.777,4.393-10.681,15.89-17.033,12.356
			C204.193,140.713,206.587,124.688,206.795,118.966z"/>
		
			<linearGradient id="SVGID_00000006685687973960460390000007633887910572100280_" gradientUnits="userSpaceOnUse" x1="1936.6871" y1="-204.3966" x2="1923.7013" y2="-178.4249" gradientTransform="matrix(-0.9882 0.1535 0.1535 0.9882 2123.1216 18.7359)">
			<stop  offset="0.243" style="stop-color:#FFB1A6"/>
			<stop  offset="1" style="stop-color:#FF6261"/>
		</linearGradient>
		<path style="fill:url(#SVGID_00000006685687973960460390000007633887910572100280_);" d="M188.276,113.855
			c-1.881-1.295-4.081-2.51-6.329-2.107c-2.248,0.403-4.027,3.277-2.598,5.058c0.724,0.902,2.155,1.872,1.47,2.803
			c-1.682-0.538-3.357,1.36-3.233,3.122c0.124,1.762,1.419,3.209,2.772,4.344c-1.708,0.285-2.322,2.967-0.908,3.967
			c0.523,0.37,1.238,0.544,1.531,1.114c0.263,0.512,0.07,1.125-0.048,1.689c-0.7,3.321,1.421,6.549,3.672,9.089
			c5.096,5.752,11.457,10.376,18.5,13.448c0.513,0.224,1.107,0.44,1.614,0.202c0.522-0.245,0.73-0.866,0.871-1.426
			C209.759,138.518,201.941,123.264,188.276,113.855z"/>
		
			<linearGradient id="SVGID_00000100340461285767661870000012112383884237358008_" gradientUnits="userSpaceOnUse" x1="1915.4418" y1="-192.0025" x2="1910.0143" y2="-163.3845" gradientTransform="matrix(-0.9882 0.1535 0.1535 0.9882 2123.1216 18.7359)">
			<stop  offset="0.243" style="stop-color:#FFB1A6"/>
			<stop  offset="1" style="stop-color:#FF6261"/>
		</linearGradient>
		<path style="fill:url(#SVGID_00000100340461285767661870000012112383884237358008_);" d="M220.743,125.721
			c-0.207-0.682-0.478-1.406-1.073-1.799c-1.051-0.694-2.496,0.026-3.289,1.004s-1.277,2.214-2.238,3.027
			c-0.636-1.616-1.637-3.504-3.372-3.559c-1.958-0.062-3.028,2.211-3.586,4.089c-0.775-1.285-1.631-2.643-3-3.256
			c-1.369-0.614-3.364-0.027-3.622,1.451c-0.136,0.78-0.097,1.988-0.887,1.932c-0.456-1.492-2.121-2.503-3.655-2.221
			c-1.534,0.282-2.73,1.82-2.626,3.376c-1.419,0.161-2.301-1.693-3.708-1.935c-1.082-0.187-2.117,0.698-2.484,1.733
			c-0.367,1.035-0.229,2.172-0.076,3.259c0.811,5.771,1.942,11.559,4.312,16.884s6.079,10.198,11.126,13.111
			C213.804,153.917,225.447,141.255,220.743,125.721z"/>
		
			<linearGradient id="SVGID_00000029756595501032096120000003837058614313878178_" gradientUnits="userSpaceOnUse" x1="1939.269" y1="-185.1296" x2="1925.9471" y2="-160.4595" gradientTransform="matrix(-0.9882 0.1535 0.1535 0.9882 2123.1216 18.7359)">
			<stop  offset="0.243" style="stop-color:#FFB1A6"/>
			<stop  offset="1" style="stop-color:#FF6261"/>
		</linearGradient>
		<path style="fill:url(#SVGID_00000029756595501032096120000003837058614313878178_);" d="M196.683,142.983
			c-1.401-0.362-2.517,1.334-3.951,1.529c-1.552,0.211-2.802-1.364-4.355-1.568c-1.292-0.17-2.652,0.632-3.863,0.149
			c-1.697-0.677-2.326-3.573-4.122-3.236c-0.4,0.075-0.743,0.319-1.101,0.511c-1.886,1.012-4.462,0.478-5.79-1.2
			c2.323,2.933,2.8,11.164,4.359,14.953c2.122,5.157,4.747,10.126,7.612,14.906c3.481,5.807,10.206,14.939,17.561,8.997
			c5.898-4.765,6.78-15.693,6.713-22.598c-0.035-3.615,0.178-10.803-4.861-11.174c-2.212-0.163-3.092,2.513-5.377,1.921
			C198.172,145.827,198.203,143.376,196.683,142.983z"/>
		
			<linearGradient id="SVGID_00000150072146181696558340000005003384060119826319_" gradientUnits="userSpaceOnUse" x1="1894.2137" y1="-185.0178" x2="1893.3182" y2="-156.3594" gradientTransform="matrix(-0.9882 0.1535 0.1535 0.9882 2123.1216 18.7359)">
			<stop  offset="0.243" style="stop-color:#FFB1A6"/>
			<stop  offset="1" style="stop-color:#FF6261"/>
		</linearGradient>
		<path style="fill:url(#SVGID_00000150072146181696558340000005003384060119826319_);" d="M207.839,144.67
			c0.337-2.793,0.866-5.824,2.967-7.696c2.1-1.873,6.247-1.445,6.882,1.296c2.019-0.838,3.072-3.042,4.746-4.447
			c1.675-1.404,5.045-1.301,5.244,0.876c2.082-2.326,4.164-4.651,6.246-6.977c0.805-0.899,2.008-1.882,3.075-1.317
			c0.466,0.247,0.761,0.748,1.236,0.977c0.62,0.3,1.348,0.062,2.027-0.051c2.902-0.484,5.961,1.861,6.247,4.789
			c-5.809,8.654-12.087,16.992-18.798,24.967c-3.7,4.396-10.524,12.546-17.232,9.401
			C203.626,163.277,207.145,150.428,207.839,144.67z"/>
		
			<linearGradient id="SVGID_00000038411713767620359780000004047802483779832971_" gradientUnits="userSpaceOnUse" x1="1865.5197" y1="-188.6336" x2="1910.2986" y2="-143.8547" gradientTransform="matrix(-0.9882 0.1535 0.1535 0.9882 2123.1216 18.7359)">
			<stop  offset="0.243" style="stop-color:#FFB1A6"/>
			<stop  offset="1" style="stop-color:#FF6261"/>
		</linearGradient>
		<path style="fill:url(#SVGID_00000038411713767620359780000004047802483779832971_);" d="M221.809,179.947
			c-3.717,3.084-8.894,4.542-13.946,5.119c-4.116,0.47-8.725,0.277-11.537-2.159c-2.062-1.787-2.744-4.521-2.301-7.078
			c0.443-2.558,1.896-4.962,3.644-7.136c4.931-6.131,25.473-21.804,34.93-18.564C240.265,152.755,226.765,175.835,221.809,179.947z"
			/>
		
			<linearGradient id="SVGID_00000114794451926268625790000000922325046095640763_" gradientUnits="userSpaceOnUse" x1="1855.8376" y1="-170.0366" x2="1888.0818" y2="-157.2337" gradientTransform="matrix(-0.9882 0.1535 0.1535 0.9882 2123.1216 18.7359)">
			<stop  offset="0.243" style="stop-color:#FFB1A6"/>
			<stop  offset="1" style="stop-color:#FF6261"/>
		</linearGradient>
		<path style="fill:url(#SVGID_00000114794451926268625790000000922325046095640763_);" d="M230.916,144.814
			c2.96-3.914,6.707-7.322,11.179-9.341c4.472-2.02,9.712-2.557,14.334-0.909c1.116,0.398,2.264,0.989,2.798,2.047
			c0.797,1.58-0.17,3.591-1.654,4.555c-1.485,0.963-3.327,1.145-5.09,1.301c1.118,0.327,2.277,0.675,3.146,1.451
			c0.869,0.776,1.355,2.113,0.803,3.139c-0.919,1.708-3.667,1.282-5.015,2.677c1.394,1.663,1.031,4.491-0.737,5.749
			c-1.768,1.258-4.559,0.672-5.672-1.191c0.232,1.734-1.072,3.38-2.659,4.12c-1.586,0.74-3.397,0.777-5.147,0.801
			c-2.034,0.028-4.068,0.056-6.102,0.084c-2.199,0.03-4.446,0.053-6.534-0.637C216.342,155.941,227.872,148.839,230.916,144.814z"/>
		
			<linearGradient id="SVGID_00000080909758436855857180000008067380284221139615_" gradientUnits="userSpaceOnUse" x1="2352.9375" y1="-431.2126" x2="2331.3755" y2="-395.8412" gradientTransform="matrix(-0.5876 0.8091 0.8091 0.5876 1881.4255 -1468.1541)">
			<stop  offset="0.243" style="stop-color:#FFB1A6"/>
			<stop  offset="1" style="stop-color:#FF6261"/>
		</linearGradient>
		<path style="fill:url(#SVGID_00000080909758436855857180000008067380284221139615_);" d="M174.662,173.384
			c-9.733-0.107-19.884,4.635-24.332,13.293c-0.651,1.266-1.186,2.684-0.944,4.087c0.242,1.403,1.523,2.707,2.932,2.508
			c0.917-0.129,1.639-0.82,2.294-1.475c1.831-1.835,3.663-3.669,5.494-5.504c0.216,1.586,1.725,2.889,3.326,2.871
			c1.6-0.018,3.08-1.356,3.259-2.946c1.629,1.534,4.396,0.811,6.069-0.674c1.673-1.485,2.732-3.554,4.353-5.095
			c3.216-3.058,8.222-3.562,12.505-2.399c3.547,0.963,6.397,3.295,9.675,4.568C196.896,176.425,180.645,173.45,174.662,173.384z"/>
		
			<linearGradient id="SVGID_00000020372574723396402600000014700470381804864911_" gradientUnits="userSpaceOnUse" x1="1927.8086" y1="-164.5091" x2="1919.8463" y2="-149.764" gradientTransform="matrix(-0.9882 0.1535 0.1535 0.9882 2123.1216 18.7359)">
			<stop  offset="0.243" style="stop-color:#FFB1A6"/>
			<stop  offset="1" style="stop-color:#FF6261"/>
		</linearGradient>
		<path style="fill:url(#SVGID_00000020372574723396402600000014700470381804864911_);" d="M211.151,171.004
			c-1.057,3.551-2.765,7.065-5.696,9.331c-2.932,2.265-7.296,2.96-10.359,0.877c-1.848-1.257-2.99-3.299-3.948-5.318
			c-2.204-4.643-3.799-9.575-4.731-14.63c-0.133-0.719-0.251-1.466-0.073-2.175c0.366-1.456,1.83-2.314,3.16-3.01
			c5.361-2.804,16.998-9.678,22.914-4.734C217.302,155.427,212.613,166.089,211.151,171.004z"/>
		
			<linearGradient id="SVGID_00000155137711651022157790000005431494543879806366_" gradientUnits="userSpaceOnUse" x1="1924.08" y1="-143.6947" x2="1903.4822" y2="-173.1997" gradientTransform="matrix(-0.9882 0.1535 0.1535 0.9882 2123.1216 18.7359)">
			<stop  offset="0.243" style="stop-color:#FFB1A6"/>
			<stop  offset="1" style="stop-color:#FF6261"/>
		</linearGradient>
		<path style="fill:url(#SVGID_00000155137711651022157790000005431494543879806366_);" d="M230.734,157.748
			c0.555,0.72,1.091,1.612,0.84,2.486c-0.169,0.587-0.666,1.023-1.193,1.333c-4.282,2.513-9.693-1.637-14.564-0.679
			c0.845,1.243,0.066,3.115-1.299,3.743c-1.365,0.629-3.022,0.237-4.274-0.596c-0.78-0.519-1.495-1.217-2.416-1.386
			c-1.111-0.204-2.191,0.419-3.13,1.046c-0.939,0.628-1.951,1.315-3.079,1.259c-1.128-0.055-2.217-1.313-1.651-2.29
			c-1.846,1.367-3.395,3.241-5.563,4.001c-2.167,0.76-5.242-0.428-5.186-2.724c-2.187,0.688-4.581,1.27-6.732,0.477
			c-2.151-0.793-3.699-3.536-2.46-5.464c0.473-0.736,1.245-1.218,2.003-1.655C195.521,149.528,219.443,143.091,230.734,157.748z"/>
		
			<linearGradient id="SVGID_00000020371640453279538010000014262418918752889231_" gradientUnits="userSpaceOnUse" x1="1960.026" y1="-159.5412" x2="1943.9056" y2="-173.8703" gradientTransform="matrix(-0.9882 0.1535 0.1535 0.9882 2123.1216 18.7359)">
			<stop  offset="0.243" style="stop-color:#FFB1A6"/>
			<stop  offset="1" style="stop-color:#FF6261"/>
		</linearGradient>
		<path style="fill:url(#SVGID_00000020371640453279538010000014262418918752889231_);" d="M154.84,145.399
			c-1.572-0.149-3.428-0.086-4.358,1.191c-1.075,1.476-0.124,3.671,1.372,4.72c1.495,1.049,3.369,1.361,5.066,2.036
			c-0.731,1.869,1.001,3.962,2.962,4.384c1.962,0.423,3.968-0.305,5.842-1.022c0.362-0.138,0.771-0.276,1.123-0.116
			c0.56,0.255,0.574,1.02,0.74,1.613c0.319,1.141,1.465,1.895,2.631,2.106c1.166,0.211,2.361-0.018,3.523-0.247
			c0.094-0.018,4.094,7.982,8.349,5.719c3.915-2.083,0.241-6.468-1.746-8.545C173.859,150.46,164.082,146.273,154.84,145.399z"/>
		
			<linearGradient id="SVGID_00000147197907910658094240000016072251750077908370_" gradientUnits="userSpaceOnUse" x1="1916.2531" y1="-140.0131" x2="1916.2531" y2="-107.2809" gradientTransform="matrix(-0.9882 0.1535 0.1535 0.9882 2123.1216 18.7359)">
			<stop  offset="0.243" style="stop-color:#63B38F"/>
			<stop  offset="1" style="stop-color:#008E4E"/>
		</linearGradient>
		<path style="fill:url(#SVGID_00000147197907910658094240000016072251750077908370_);" d="M221.951,179.96
			c2.196-2.387,6.458-4.537,5.565-8.368c-6.603,0.445-10.06,14.543-14.869,2.387c-1.126-1.252-3.113-1.983-4.507-1.039
			c2.056,17.507-24.09-4.125-19.223,5.298c2.946,5.703,16.427,3.056,16.109,19.777c1.356,4.689,9.862,16.09,13.738,3.271
			C220.865,194.332,216.233,186.16,221.951,179.96z"/>
		<g>
			
				<linearGradient id="SVGID_00000155867101466606353230000017659203866039762349_" gradientUnits="userSpaceOnUse" x1="2366.2046" y1="-458.5318" x2="2376.5427" y2="-432.5603" gradientTransform="matrix(-0.6043 0.7968 0.7968 0.6043 1920.4186 -1390.6448)">
				<stop  offset="0.243" style="stop-color:#FFB1A6"/>
				<stop  offset="1" style="stop-color:#FF6261"/>
			</linearGradient>
			<path style="fill:url(#SVGID_00000155867101466606353230000017659203866039762349_);" d="M143.935,230.041
				c0.111,1.382-1.733,2.212-3.033,1.729c-1.299-0.483-2.134-1.717-2.976-2.819c-0.842-1.101-1.936-2.216-3.322-2.264
				c-1.386-0.048-2.697,1.714-1.778,2.753c-2.161-3.221-7.155-4.063-10.252-1.727c-0.511,0.385-0.979,0.853-1.243,1.436
				c-0.768,1.696,0.396,3.598,1.505,5.093c3.474,4.682,7.111,9.508,12.228,12.302C149.669,254.515,154.793,239.269,143.935,230.041z
				"/>
			
				<linearGradient id="SVGID_00000162318431596750922290000000803053196103057816_" gradientUnits="userSpaceOnUse" x1="2367.248" y1="-458.8332" x2="2367.248" y2="-422.3139" gradientTransform="matrix(-0.6043 0.7968 0.7968 0.6043 1920.4186 -1390.6448)">
				<stop  offset="0.243" style="stop-color:#FFB1A6"/>
				<stop  offset="1" style="stop-color:#FF6261"/>
			</linearGradient>
			<path style="fill:url(#SVGID_00000162318431596750922290000000803053196103057816_);" d="M153.267,231.981
				c0.241-10.543-41.561-24.524-27.432-10.107c-4.171,2.779,1.163,7.089,4.757,6.744c-2.887,2.185,1.389,4.82,3.87,3.953
				c-0.778,2.002,1.747,4.337,3.682,3.406c-2.295,4.014,5.281,8.276,8.018,10.617c1.261,0.494,2.604,0.345,3.586-0.576
				C149.076,241.77,155.676,237.09,153.267,231.981z"/>
			
				<linearGradient id="SVGID_00000045581083989199760260000015429409672677808263_" gradientUnits="userSpaceOnUse" x1="2370.8904" y1="-435.8367" x2="2370.8904" y2="-407.1958" gradientTransform="matrix(-0.6043 0.7968 0.7968 0.6043 1920.4186 -1390.6448)">
				<stop  offset="0.243" style="stop-color:#63B38F"/>
				<stop  offset="1" style="stop-color:#008E4E"/>
			</linearGradient>
			<path style="fill:url(#SVGID_00000045581083989199760260000015429409672677808263_);" d="M154.219,229.691
				c-1.123-1.919-3.304-2.907-5.352-3.774c-1.168-0.494-2.745-0.893-3.518,0.113c-0.385,0.501-0.402,1.186-0.388,1.818
				c0.116,5.222,1.213,10.42,3.217,15.243c-1.224-1.625-2.471-3.274-4.105-4.487c-1.633-1.213-3.735-1.952-5.721-1.507
				c-0.381,0.085-0.775,0.228-1.017,0.535c-0.561,0.711,0.003,1.736,0.579,2.435c1.723,2.094,3.632,4.034,5.699,5.79
				c-3.238,0.313-6.154-2.641-9.382-2.237c-0.432,0.054-0.929,0.238-1.034,0.66c-0.058,0.233,0.025,0.477,0.118,0.698
				c1.744,4.151,7.037,5.514,11.523,5.14c0.788-0.065,1.604-0.164,2.353,0.091c0.64,0.218,1.165,0.674,1.691,1.098
				c1.881,1.518,3.987,2.759,6.227,3.668c1.59,0.646,3.346,1.129,5.012,0.713c1.665-0.415,3.139-2.003,2.888-3.701
				c-0.664-4.486-6.185-5.648-8.101-9.155C152.702,238.793,156.658,233.859,154.219,229.691z"/>
			
				<linearGradient id="SVGID_00000050642591046099178230000000103141733840311727_" gradientUnits="userSpaceOnUse" x1="1909.255" y1="-125.2364" x2="1909.255" y2="126.0193" gradientTransform="matrix(-0.9882 0.1535 0.1535 0.9882 2123.1216 18.7359)">
				<stop  offset="0.243" style="stop-color:#63B38F"/>
				<stop  offset="1" style="stop-color:#008E4E"/>
			</linearGradient>
			<path style="fill:url(#SVGID_00000050642591046099178230000000103141733840311727_);" d="M159.87,254.471
				c-0.643-0.69-0.161-1.8-0.69-2.628c-0.726-1.137-0.072-3.045-0.065-3.392c0.042-2.073,0.084-4.147,0.126-6.22
				c0.321,2.639,2.331,4.706,4.174,6.622c1.644,1.708,3.899,4.306,3.653,6.758c3.02,1.49,6.459,2.297,9.76,2.906
				c6.619,1.222,13.195,2.23,19.667,4.147c13.17,3.902,25.783,10.344,36.142,19.427c2.625,2.302,5.076,4.768,7.359,7.376
				c-1.545-4.46-3.207-8.88-4.984-13.256c-4.665-11.487-9.952-22.714-14.434-34.277c-4.234-10.922-7.738-22.217-9.155-33.857
				c-3.368,0.57-6.762-0.386-8.472-3.848c-0.522-1.057-0.701-2.244-0.874-3.41c-0.64-4.324-1.281-8.647-1.921-12.971
				c5.099,3.011,9.137,7.746,11.377,13.225c0.131-0.104,0.275-0.188,0.427-0.254c-0.13-2.058,0.069-4.136,1.207-5.811
				c0.926-1.362,2.361-2.278,3.755-3.156c3.019-1.901,6.038-3.801,9.057-5.702c-1.938,2.208-2.81,5.137-3.478,7.998
				c-0.667,2.861-1.204,5.811-2.638,8.375c-1.064,1.901-3.018,3.52-5.252,4.547c1.729,14.858,6.873,28.893,12.671,42.674
				c1.59-6.247,7.506-15.374,8.304-17.461c1.756-3.39,3.242-6.958,5.555-9.995c4.998-6.563,13.376-9.873,21.602-10.489
				c14.046-1.053,28.438,5.328,37.09,16.443c-6.925-5.058-15.864-6.322-24.421-6.878c-6.536-0.425-14.013-0.148-18.311,4.795
				c-1.709,1.965-2.679,4.443-3.881,6.753c-2.49,4.789-6.036,8.901-9.93,12.6c-2.382,2.263-9.22,10.029-12.533,10.259
				c-0.324,0.023-0.623,0.024-0.901,0.006c2.338,5.41,4.713,10.795,6.955,16.187c3.424,8.233,10.872,29.115,10.4,29.598
				c3.971,13.743,6.862,27.791,8.553,42.035c1.658,13.968,3.542,79.658,2.974,93.712c-0.085,2.108-3.346,1.728-3.261-0.376
				c1.005-24.858-2.932-101.416-8.956-125.555c-1.064-4.263-2.244-8.494-3.527-12.693c-7.13-10.54-17.161-18.997-28.336-25
				c-6.038-3.243-12.417-5.84-18.979-7.812c-6.453-1.939-13.023-2.884-19.623-4.131c-3.623-0.685-7.405-1.628-10.739-3.298
				c-0.425,0.317-0.894,0.578-1.397,0.746c-2.687,0.897-5.518-0.655-7.925-2.149c-1.67-1.036-3.34-2.072-5.01-3.109
				C153.915,254.449,156.9,254.616,159.87,254.471z"/>
		</g>
	</g>
	<g>
		
			<linearGradient id="SVGID_00000041994849360992768510000000991094005868329371_" gradientUnits="userSpaceOnUse" x1="342.519" y1="232.0069" x2="335.3537" y2="199.1662" gradientTransform="matrix(0.9918 0.1275 -0.1275 0.9918 -9.4374 24.6714)">
			<stop  offset="0.243" style="stop-color:#FFB1A6"/>
			<stop  offset="1" style="stop-color:#FF6261"/>
		</linearGradient>
		<path style="fill:url(#SVGID_00000041994849360992768510000000991094005868329371_);" d="M275.033,284.532
			c-1.215,2.036-2.019,5.051-0.112,6.458c1.541,1.137,3.744,0.292,5.295-0.832c1.551-1.124,3.092-2.57,5.007-2.607
			c-0.207,1.139-0.413,2.32-0.132,3.443c0.281,1.123,1.192,2.176,2.349,2.233c2.027,0.099,3.164-2.629,5.169-2.943
			c1.089-0.17,2.131,0.42,3.191,0.722c1.06,0.302,2.482,0.135,2.859-0.9c1.617,1.668,1.986,4.615,4.167,5.416
			c1.394,0.512,3.001-0.173,4-1.273c0.999-1.099,1.521-2.538,2.02-3.937c-0.545,1.529,5.911,3.47,7.231-0.12
			c5.189,3.72,9.919-3.459,9.227-8.203c-1.013-6.937-9.379-10.22-15.232-11.702C296.867,266.942,282.074,272.733,275.033,284.532z"
			/>
		
			<linearGradient id="SVGID_00000045590235056819998710000004711098006521813692_" gradientUnits="userSpaceOnUse" x1="380.521" y1="153.6101" x2="347.6801" y2="187.0481" gradientTransform="matrix(0.9918 0.1275 -0.1275 0.9918 -9.4374 24.6714)">
			<stop  offset="0.243" style="stop-color:#FFB1A6"/>
			<stop  offset="1" style="stop-color:#FF6261"/>
		</linearGradient>
		<path style="fill:url(#SVGID_00000045590235056819998710000004711098006521813692_);" d="M317.301,229.358
			c1.001-1.956,2.095-4.254,4.235-4.755c1.516-0.355,3.226,0.479,3.879,1.892s0.182,3.256-1.071,4.181
			c1.705-0.042,3.044-1.383,4.431-2.375c1.387-0.992,3.483-1.616,4.667-0.388c1.351,1.402,0.243,3.699-0.892,5.28
			c1.65-1.731,4.22-2.934,6.437-2.035c2.216,0.899,2.928,4.581,0.784,5.641c1.202-1.411,3.105-2.301,4.93-1.974
			c1.824,0.327,3.39,2.052,3.235,3.899c-0.097,1.156-0.79,2.168-1.512,3.075c-2.816,3.538-6.449,6.421-10.534,8.359
			c1.044,1.365,2.087,2.73,3.131,4.095c-2.655,2.341-5.62,4.33-8.793,5.899c1.184,0.021,1.951,1.441,1.705,2.6
			c-0.246,1.159-1.173,2.042-2.124,2.749c-4.766,3.545-11.091,4.462-16.983,3.708s-11.47-3.024-16.931-5.361
			c-10.584-4.53-20.141-12.221-5-16.309C302.049,244.526,311.703,240.294,317.301,229.358z"/>
		
			<linearGradient id="SVGID_00000039127950073431297420000007064638321165185724_" gradientUnits="userSpaceOnUse" x1="274.7601" y1="169.0886" x2="301.6297" y2="195.9583" gradientTransform="matrix(0.9918 0.1275 -0.1275 0.9918 -9.4374 24.6714)">
			<stop  offset="0.243" style="stop-color:#FFB1A6"/>
			<stop  offset="1" style="stop-color:#FF6261"/>
		</linearGradient>
		<path style="fill:url(#SVGID_00000039127950073431297420000007064638321165185724_);" d="M251.728,264.987
			c-3.615-1.302-7.042-3.071-10.456-4.834c-1.921-0.992-3.894-2.025-5.292-3.674c-1.398-1.65-2.093-4.089-1.113-6.016
			c0.98-1.927,3.98-2.682,5.398-1.05c-1.287-1.598-2.646-3.423-2.459-5.466c0.187-2.043,2.962-3.703,4.349-2.192
			c-1.873-1.931-3.183-4.727-2.413-7.304c0.77-2.578,4.304-4.201,6.341-2.444c-0.301-2.36-0.548-4.962,0.796-6.924
			c1.344-1.963,4.96-2.292,5.795-0.065c-0.39-2.599,2.359-4.829,4.986-4.833c2.628-0.004,4.991,1.544,7.03,3.202
			c9.95,8.088,19.268,22.987,20.038,36.108C285.755,277.002,261.591,268.539,251.728,264.987z"/>
		
			<linearGradient id="SVGID_00000061438130182820026140000004640045269761570455_" gradientUnits="userSpaceOnUse" x1="305.9785" y1="161.7779" x2="305.9785" y2="198.0618" gradientTransform="matrix(0.9918 0.1275 -0.1275 0.9918 -9.4374 24.6714)">
			<stop  offset="0.243" style="stop-color:#FFB1A6"/>
			<stop  offset="1" style="stop-color:#FF6261"/>
		</linearGradient>
		<path style="fill:url(#SVGID_00000061438130182820026140000004640045269761570455_);" d="M252.091,237.158
			c-0.536-1.3-0.984-2.839-0.278-4.056c1.289-2.222,4.818-1.128,6.561,0.76c0.069-2.106,0.139-4.212,0.208-6.318
			c2.087-0.225,4.256,0.434,5.864,1.784c-0.026-1.317-0.042-2.68,0.48-3.889c0.523-1.209,1.744-2.221,3.052-2.063
			c2.349,0.284,2.928,3.633,4.999,4.776c-0.15-1.672-0.116-3.692,1.301-4.592c1.232-0.783,2.955-0.214,3.926,0.875
			c0.971,1.09,1.373,2.557,1.746,3.968c-0.188-2.142,1.237-4.439,3.351-4.835c2.114-0.396,4.429,1.641,3.971,3.742
			c0.86-1.262,2.988-0.875,3.903,0.348s0.956,2.87,0.936,4.397c-0.071,5.241-0.436,10.478-1.092,15.679
			c-0.516,4.09-1.269,8.301-3.586,11.711c-0.379,0.557-0.809,1.1-1.384,1.455C275.027,267.694,255.443,245.282,252.091,237.158z"/>
		
			<linearGradient id="SVGID_00000160913310941379051880000010353361500826987424_" gradientUnits="userSpaceOnUse" x1="331.1262" y1="149.2602" x2="331.1262" y2="197.2461" gradientTransform="matrix(0.9918 0.1275 -0.1275 0.9918 -9.4374 24.6714)">
			<stop  offset="0.243" style="stop-color:#FFB1A6"/>
			<stop  offset="1" style="stop-color:#FF6261"/>
		</linearGradient>
		<path style="fill:url(#SVGID_00000160913310941379051880000010353361500826987424_);" d="M283.555,238.122
			c-2.353-7.08-5.968-13.945-6.182-21.402c-0.06-2.078,0.41-4.55,2.311-5.393c2.768-1.228,5.343,2.001,6.653,4.731
			c0.18-2.777,2.974-5.098,5.737-4.767c2.763,0.332,4.927,3.249,4.444,5.99c0.748-2.222,2.69-4.167,5.029-4.319
			c2.339-0.152,4.73,2.016,4.31,4.322c0.282-1.663,2.799-2.025,4.048-0.891c1.249,1.134,1.474,3,1.437,4.687
			c1.011-1.768,3.674-2.303,5.29-1.064c1.616,1.24,1.788,3.951,0.342,5.385c0.783-0.786,2.083,0.202,2.554,1.207
			c1.297,2.768,0.922,6.094-0.328,8.883s-3.288,5.142-5.356,7.393c-4.462,4.858-19.576,23.614-26.243,19.067
			C282.295,258.334,285.493,243.953,283.555,238.122z"/>
		
			<linearGradient id="SVGID_00000139982805857450583180000002373313663509456301_" gradientUnits="userSpaceOnUse" x1="1024.9437" y1="829.4256" x2="997.0003" y2="871.3407" gradientTransform="matrix(0.7909 0.612 -0.612 0.7909 34.6869 -1035.3918)">
			<stop  offset="0.243" style="stop-color:#FFB1A6"/>
			<stop  offset="1" style="stop-color:#FF6261"/>
		</linearGradient>
		<path style="fill:url(#SVGID_00000139982805857450583180000002373313663509456301_);" d="M296.779,253.333
			c0.61-1.243,1.388-2.553,2.689-3.025c1.301-0.472,3.114,0.526,2.858,1.887c0.383-0.905,0.766-1.811,1.149-2.716
			c0.777-1.836,1.704-3.832,3.523-4.65c1.818-0.817,4.551,0.631,4.054,2.562c0.818-2.281,1.788-4.75,3.896-5.946
			c2.108-1.196,5.55,0.016,5.443,2.438c0.685-1.658,1.617-3.433,3.306-4.038c1.689-0.605,4.013,0.989,3.344,2.652
			c1.768-2.001,4.488-4.185,6.787-2.828c2.446,1.444,1.559,5.174,0.184,7.66c-5.918,10.703-15.753,20.029-27.038,24.898
			C291.339,278.974,291.535,264.027,296.779,253.333z"/>
		
			<linearGradient id="SVGID_00000040566704611039689040000016245667317820405416_" gradientUnits="userSpaceOnUse" x1="317.714" y1="175.6763" x2="317.714" y2="208.9583" gradientTransform="matrix(0.9918 0.1275 -0.1275 0.9918 -9.4374 24.6714)">
			<stop  offset="0.243" style="stop-color:#FFB1A6"/>
			<stop  offset="1" style="stop-color:#FF6261"/>
		</linearGradient>
		<path style="fill:url(#SVGID_00000040566704611039689040000016245667317820405416_);" d="M261.757,256.217
			c-0.854-0.751-1.623-1.725-1.685-2.86c-0.104-1.924,1.951-3.4,3.878-3.413c1.927-0.013,3.693,0.996,5.353,1.975
			c-1.27-2.165-0.385-5.306,1.829-6.49c2.214-1.183,5.318-0.175,6.412,2.084c1.446-0.391,0.618-2.55,0.677-4.047
			c0.075-1.884,2.237-3.165,4.1-2.875c1.863,0.29,3.36,1.704,4.436,3.252c0.035-2.01,0.376-4.483,2.26-5.187
			c2.36-0.882,4.589,1.913,7.108,1.952c0.676,0.01,1.381-0.178,2.009,0.071c0.69,0.274,1.079,0.995,1.386,1.671
			c2.672,5.869,5.425,33.185-5.895,32.412c-4.073-0.278-8.85-8.474-12.223-10.653C275.437,260.255,267.117,260.932,261.757,256.217z
			"/>
		
			<linearGradient id="SVGID_00000080201402024231723260000010671018048160363951_" gradientUnits="userSpaceOnUse" x1="377.0458" y1="200.8943" x2="344.6769" y2="200.1237" gradientTransform="matrix(0.9918 0.1275 -0.1275 0.9918 -9.4374 24.6714)">
			<stop  offset="0.243" style="stop-color:#FFB1A6"/>
			<stop  offset="1" style="stop-color:#FF6261"/>
		</linearGradient>
		<path style="fill:url(#SVGID_00000080201402024231723260000010671018048160363951_);" d="M329.906,256.734
			c1.961-0.541,4.523-0.854,5.605,0.869c1.306,2.079-1.008,4.54-3.144,5.749c1.58,0.227,3.159,0.455,4.739,0.682
			c0.533,0.077,1.096,0.166,1.514,0.506c0.638,0.519,0.74,1.465,0.59,2.273c-0.449,2.427-2.921,4.299-5.378,4.075
			c0.63-0.6,1.647-0.749,2.422-0.353c-0.006,4.197-4.15,7.903-8.322,7.44c0.829,0.618-0.018,1.911-0.894,2.461
			c-6.478,4.062-14.845,2.527-22.306,0.854C280.201,275.791,322.86,258.679,329.906,256.734z"/>
		
			<linearGradient id="SVGID_00000179626381385990868580000009205829958380177826_" gradientUnits="userSpaceOnUse" x1="293.8449" y1="218.4143" x2="320.7148" y2="195.1271" gradientTransform="matrix(0.9918 0.1275 -0.1275 0.9918 -9.4374 24.6714)">
			<stop  offset="0.243" style="stop-color:#FFB1A6"/>
			<stop  offset="1" style="stop-color:#FF6261"/>
		</linearGradient>
		<path style="fill:url(#SVGID_00000179626381385990868580000009205829958380177826_);" d="M254.337,254.193
			c-1.212-0.145-2.506-0.251-3.591,0.309c-2.011,1.037-2.298,4.049-1.013,5.912c1.285,1.862,3.614,2.723,5.857,3.015
			c-1.529,0.422-3.132,0.885-4.254,2.006c-1.123,1.121-1.533,3.124-0.439,4.274c0.478,0.502,1.154,0.763,1.823,0.941
			c2.849,0.758,6.014,0.228,8.461-1.416c0.869,2.166-1.447,5.408,0.561,6.596c0.516,0.305,1.153,0.298,1.752,0.262
			c2.793-0.17,5.559-0.792,8.155-1.835c-0.132,1.672-0.252,3.42,0.407,4.962c0.659,1.542,2.367,2.775,3.978,2.309
			c1.674-0.485,2.823-2.592,4.543-2.318c0.683,0.109,1.236,0.589,1.804,0.983c2.715,1.886,6.575,1.946,9.348,0.148
			C310.172,268.378,261.475,255.049,254.337,254.193z"/>
	</g>
	
		<linearGradient id="SVGID_00000059989293330108079020000017680743748332640912_" gradientUnits="userSpaceOnUse" x1="177.8784" y1="-183.6606" x2="177.8784" y2="-146.0525" gradientTransform="matrix(0.6794 0.7337 -0.7337 0.6794 -53.4842 242.6398)">
		<stop  offset="0.243" style="stop-color:#FFB1A6"/>
		<stop  offset="1" style="stop-color:#FF6261"/>
	</linearGradient>
	<path style="fill:url(#SVGID_00000059989293330108079020000017680743748332640912_);" d="M210.922,254.877
		c-13.163-7.081-30.414-5.713-42.297,3.352c-0.888,0.677-1.788,1.451-2.138,2.511c-0.739,2.235,1.478,4.561,3.813,4.862
		c2.335,0.301,4.604-0.77,6.715-1.813c-4.137,1.164-5.869,7.179-2.984,10.365c2.885,3.186,9.042,2.057,10.609-1.945
		c-2.429,2.235-0.185,6.829,3.08,7.317c3.265,0.488,6.342-1.867,8.132-4.641c1.79-2.774,2.721-6.019,4.391-8.867
		c2.585-4.409,6.975-7.724,11.923-9.003"/>
	<g>
		
			<linearGradient id="SVGID_00000172415770460457171550000010753509353725189299_" gradientUnits="userSpaceOnUse" x1="155.452" y1="468.8525" x2="155.452" y2="536.1905" gradientTransform="matrix(0.9967 -0.0815 0.0815 0.9967 41.7804 -296.9939)">
			<stop  offset="0.243" style="stop-color:#FFB1A6"/>
			<stop  offset="1" style="stop-color:#FF6261"/>
		</linearGradient>
		<path style="fill:url(#SVGID_00000172415770460457171550000010753509353725189299_);" d="M212.393,166.97
			c0.224-5.09,2.308-11.474,7.395-11.75c0.84,2.434,1.681,4.868,2.521,7.302c3.595-2.871,7.853-4.907,12.345-5.901
			c0.811,1.339,1.622,2.677,2.433,4.016c0.424-2.641,3.034-4.743,5.705-4.595c2.671,0.148,5.032,2.526,5.161,5.198
			c-1.271-2.415,1.143-5.576,3.871-5.658c2.728-0.082,5.109,2.113,6.115,4.65c1.005,2.537,0.928,5.356,0.806,8.083
			c-0.372,8.345-1.015,16.675-1.658,25.003c-1.095,14.189-0.923,42.638-22.962,27.85C216.99,209.668,213.901,185.411,212.393,166.97
			z"/>
		
			<linearGradient id="SVGID_00000127042292311049715810000015201177077161411473_" gradientUnits="userSpaceOnUse" x1="184.954" y1="482.4195" x2="184.954" y2="537.329" gradientTransform="matrix(0.9967 -0.0815 0.0815 0.9967 41.7804 -296.9939)">
			<stop  offset="0.243" style="stop-color:#FFB1A6"/>
			<stop  offset="1" style="stop-color:#FF6261"/>
		</linearGradient>
		<path style="fill:url(#SVGID_00000127042292311049715810000015201177077161411473_);" d="M251.437,174.063
			c0.31-2.218,0.705-4.584,2.24-6.216c1.535-1.632,4.62-1.963,5.825-0.075c0.522,0.818,0.607,1.89,1.263,2.604
			c1.03,1.12,3.007,0.74,4.047-0.37c1.04-1.111,1.389-2.682,1.697-4.172c2.686,1.059,4.464,4.054,4.108,6.919
			c2.499-0.894,4.654-2.714,5.953-5.028c1.592,1.774,2.645,4.026,2.986,6.385c1.361-2.706,4.324-5.881,6.79-4.121
			c1.507,1.075,1.473,3.292,1.22,5.126c-2.144,15.57-8.917,30.472-19.237,42.326c-2.663,3.059-5.699,6.011-9.538,7.32
			C238.63,231.638,250.142,183.351,251.437,174.063z"/>
		
			<linearGradient id="SVGID_00000120556499748049719550000012949313314944561048_" gradientUnits="userSpaceOnUse" x1="137.6494" y1="485.3632" x2="137.6494" y2="534.33" gradientTransform="matrix(0.9967 -0.0815 0.0815 0.9967 41.7804 -296.9939)">
			<stop  offset="0.243" style="stop-color:#FFB1A6"/>
			<stop  offset="1" style="stop-color:#FF6261"/>
		</linearGradient>
		<path style="fill:url(#SVGID_00000120556499748049719550000012949313314944561048_);" d="M195.532,189.14
			c-0.892-2.542-1.53-5.54-0.043-7.786c1.487-2.247,5.881-2.085,6.174,0.594c-0.5-2.354,0.889-4.967,3.12-5.87
			c2.231-0.903,5.046,0.01,6.324,2.049c2.091-3.392,6.146-6.331,9.852-4.869c4.66,1.839,4.559,8.272,4.884,13.271
			c0.515,7.916,4.293,15.57,10.264,20.794c4.542,3.973,15.739,10.178,7.978,15.33c-4.346,2.885-16.118-2.021-20.153-3.763
			C211.02,213.316,200.219,202.492,195.532,189.14z"/>
		
			<linearGradient id="SVGID_00000118380702270856770480000008980569199965411739_" gradientUnits="userSpaceOnUse" x1="164.1906" y1="495.4853" x2="164.1906" y2="539.5707" gradientTransform="matrix(0.9967 -0.0815 0.0815 0.9967 41.7804 -296.9939)">
			<stop  offset="0.243" style="stop-color:#FFB1A6"/>
			<stop  offset="1" style="stop-color:#FF6261"/>
		</linearGradient>
		<path style="fill:url(#SVGID_00000118380702270856770480000008980569199965411739_);" d="M223.689,188.934
			c2.82-0.71,5.947,1.183,8.19,4.957c0.288-8.676,7.196-12.405,10.739-5.797c0.654-4.263,3.3-6.366,5.803-6.02
			c2.503,0.345,4.902,2.591,7.211,4.791c0.889-6.118,5.201-8.697,8.586-5.953c3.385,2.744,5.597,9.593,5.861,16.119
			c0.263,6.526-1.155,12.652-3.221,17.555C256.578,238.992,221.407,230.061,223.689,188.934z"/>
		
			<linearGradient id="SVGID_00000013189773884335879250000004120590719920038576_" gradientUnits="userSpaceOnUse" x1="164.3236" y1="527.1291" x2="164.3236" y2="566.5728" gradientTransform="matrix(0.9967 -0.0815 0.0815 0.9967 41.7804 -296.9939)">
			<stop  offset="0.243" style="stop-color:#63B38F"/>
			<stop  offset="1" style="stop-color:#008E4E"/>
		</linearGradient>
		<path style="fill:url(#SVGID_00000013189773884335879250000004120590719920038576_);" d="M242.713,238.861
			c-1.676-6.855-6.206-12.964-12.278-16.559c4.318-1.583,8.665,4.238,13.074,2.93c-0.224-4.18,1.144-8.425,3.765-11.689
			c0.184-0.229,0.384-0.461,0.653-0.578c1.13-0.492,1.891,1.199,1.97,2.429c0.182,2.859,0.365,5.719,0.547,8.579
			c0.033,0.52,0.076,1.068,0.371,1.497c0.935,1.361,3.046,0.317,4.268-0.792c3.818-3.466,7.636-6.932,11.454-10.399
			c1.022,0.303,0.754,1.825,0.238,2.757c-1.417,2.557-3.101,4.966-5.015,7.176c-0.694,0.801-1.426,1.589-1.907,2.533
			c-1.184,2.329-0.634,5.109-0.408,7.712c0.456,5.24-1.038,19.614-7.939,20.426C244.455,255.712,243.776,243.207,242.713,238.861z"
			/>
		
			<linearGradient id="SVGID_00000133490300283632824700000005565707653039493035_" gradientUnits="userSpaceOnUse" x1="158.1793" y1="567.2492" x2="158.1793" y2="758.9033" gradientTransform="matrix(0.9967 -0.0815 0.0815 0.9967 41.7804 -296.9939)">
			<stop  offset="0.243" style="stop-color:#63B38F"/>
			<stop  offset="1" style="stop-color:#008E4E"/>
		</linearGradient>
		<path style="fill:url(#SVGID_00000133490300283632824700000005565707653039493035_);" d="M257.723,312.133
			c-2.57-4.794-2.773-43.594-5.41-55.6l0.377,0.001c0.95,0.364,1.873-0.565,2.418-1.423c2.5-3.935,4.069-8.947,8.246-11.016
			c-4.654,1.793-8.88,4.686-12.235,8.376l-9.776-7.05c1.533,2.489,3.067,4.978,4.6,7.466c0.872,1.415,2.049,2.974,3.509,3.496
			c0.407,15.941,2.037,31.812,3.881,47.668c-4.627-5.599-20.613-22.218-46.714-21.206c-31.352,1.216-41.76,22.286-41.76,22.286
			s25.491-34.429,88.603,0.039c3.661,31.297-2.579,113.034-5.13,144.641c9.02,7.943,11.943-116.804,10.951-125.134
			c18.494-20.725,25.91-26.832,34.917-32.077c8.767-5.874,24.903,1.233,38.924-5.434
			C292.283,286.168,286.704,275.743,257.723,312.133z"/>
	</g>
	<g>
		<g>
			
				<linearGradient id="SVGID_00000103227521295526905810000017643769039566291340_" gradientUnits="userSpaceOnUse" x1="-580.9441" y1="351.277" x2="-688.7825" y2="536.7592" gradientTransform="matrix(-1 0 0 1 -315.5202 0)">
				<stop  offset="0.243" style="stop-color:#FF8585"/>
				<stop  offset="1" style="stop-color:#FF4E4E"/>
			</linearGradient>
			<path style="fill:url(#SVGID_00000103227521295526905810000017643769039566291340_);" d="M256.894,361.455
				c0,0,44.861,12.413,60.241,58.014c15.38,45.6,41.367,48.065,41.367,48.065l-39.902,11.708c0,0-15.651-6.481-25.714-51.146
				c-10.063-44.666-22.776-58.151-35.992-62.351V361.455z"/>
			
				<linearGradient id="SVGID_00000139988380523430076280000016221604888120666022_" gradientUnits="userSpaceOnUse" x1="245.8748" y1="351.2769" x2="138.0364" y2="536.7592">
				<stop  offset="0.243" style="stop-color:#FF8585"/>
				<stop  offset="1" style="stop-color:#FF4E4E"/>
			</linearGradient>
			<path style="fill:url(#SVGID_00000139988380523430076280000016221604888120666022_);" d="M254.405,361.455
				c0,0-44.861,12.413-60.241,58.014c-15.38,45.6-41.367,48.065-41.367,48.065l39.902,11.708c0,0,15.651-6.481,25.714-51.146
				c10.063-44.666,22.777-58.151,35.992-62.351V361.455z"/>
			
				<linearGradient id="SVGID_00000077311865589064929240000009271772807371089287_" gradientUnits="userSpaceOnUse" x1="177.6906" y1="-277.3718" x2="78.2067" y2="-281.1835" gradientTransform="matrix(0.9753 -0.221 -0.221 -0.9753 16.1239 124.3327)">
				<stop  offset="0.243" style="stop-color:#FF8585"/>
				<stop  offset="1" style="stop-color:#FF4E4E"/>
			</linearGradient>
			<path style="fill:url(#SVGID_00000077311865589064929240000009271772807371089287_);" d="M260.072,358.356
				c-49.259,21.165-99.936,9.615-114.762,44.49l-6.553-28.922C134.148,353.584,235.825,357.412,260.072,358.356z"/>
			
				<linearGradient id="SVGID_00000169542141325329419780000013861272296948244402_" gradientUnits="userSpaceOnUse" x1="-552.9741" y1="-111.8054" x2="-652.458" y2="-115.6171" gradientTransform="matrix(-0.9753 -0.221 0.221 -0.9753 -251.4206 124.3327)">
				<stop  offset="0.243" style="stop-color:#FF8585"/>
				<stop  offset="1" style="stop-color:#FF4E4E"/>
			</linearGradient>
			<path style="fill:url(#SVGID_00000169542141325329419780000013861272296948244402_);" d="M253.839,358.356
				c49.259,21.165,99.936,9.615,114.762,44.49l6.553-28.922C379.762,353.584,278.086,357.412,253.839,358.356z"/>
			<g>
				
					<linearGradient id="SVGID_00000075862154794412637700000005338604352136468625_" gradientUnits="userSpaceOnUse" x1="66.6655" y1="-291.3989" x2="171.9607" y2="-284.5318" gradientTransform="matrix(0.9753 -0.221 -0.221 -0.9753 16.1239 124.3327)">
					<stop  offset="0.243" style="stop-color:#FF8585"/>
					<stop  offset="1" style="stop-color:#FF4E4E"/>
				</linearGradient>
				<path style="fill:url(#SVGID_00000075862154794412637700000005338604352136468625_);" d="M260.167,358.775
					c-24.947,4.215-92.989,40.273-121.399,15.195l6.553,28.922C149.929,423.232,230.975,391.686,260.167,358.775z"/>
				
					<linearGradient id="SVGID_00000121991441814294201910000000399850637672248961_" gradientUnits="userSpaceOnUse" x1="-663.9992" y1="-125.8325" x2="-558.7041" y2="-118.9654" gradientTransform="matrix(-0.9753 -0.221 0.221 -0.9753 -251.4206 124.3327)">
					<stop  offset="0.243" style="stop-color:#FF8585"/>
					<stop  offset="1" style="stop-color:#FF4E4E"/>
				</linearGradient>
				<path style="fill:url(#SVGID_00000121991441814294201910000000399850637672248961_);" d="M253.744,358.775
					c24.947,4.215,92.989,40.273,121.399,15.195l-6.553,28.922C363.982,423.232,282.936,391.686,253.744,358.775z"/>
				
					<linearGradient id="SVGID_00000116214156382268573580000009376016164088430505_" gradientUnits="userSpaceOnUse" x1="257.3029" y1="357.8391" x2="256.6052" y2="367.2572">
					<stop  offset="0.243" style="stop-color:#FF8585"/>
					<stop  offset="1" style="stop-color:#FF4E4E"/>
				</linearGradient>
				
					<rect x="249.521" y="357.45" style="fill:url(#SVGID_00000116214156382268573580000009376016164088430505_);" width="14.746" height="11.821"/>
			</g>
		</g>
	</g>
</g>
<rect x="0" style="fill:none;" width="500" height="500"/>
</svg>
